<svg width="428" height="94" viewBox="0 0 428 94" fill="none" xmlns="http://www.w3.org/2000/svg">
<path d="M92.4 47.2C92.4 72.1633 72.1633 92.4 47.2 92.4C22.2367 92.4 2 72.1633 2 47.2C2 22.2367 22.2367 2 47.2 2C72.1633 2 92.4 22.2367 92.4 47.2Z" stroke="#22668C" stroke-width="3"/>
<path d="M55.525 32.4961C54.4626 32.0188 53.3937 31.6654 52.2772 31.4303C52.7401 31.6422 53.2056 31.8489 53.6655 32.0668C58.0724 34.1542 61.5244 37.1911 63.6256 41.5518C64.5941 43.5619 65.1563 45.6847 65.3885 47.8922C65.434 48.3244 65.4682 48.7554 65.4899 49.1891C65.5052 49.4945 65.3895 49.607 65.0793 49.6023C64.3599 49.5914 63.6403 49.6001 62.9207 49.6001C50.337 49.5996 37.7532 49.599 25.1695 49.5984C25.0575 49.5984 24.9456 49.5979 24.8337 49.597C24.1629 49.592 24.1258 49.5549 24.1807 48.9048C24.6518 43.3231 26.8771 38.508 30.9936 34.575C34.5103 31.215 38.7286 29.125 43.6314 28.416C54.0678 26.907 63.9338 32.1737 68.2242 41.5434C69.3103 43.9153 69.919 46.4098 70.0776 49.0022C70.1131 49.5839 70.0811 49.5951 69.4698 49.598C68.9102 49.6006 68.3504 49.5892 67.791 49.5995C67.4703 49.6054 67.3485 49.4844 67.3263 49.1643C67.1325 46.3767 66.4132 43.724 65.0574 41.2524C62.8972 37.3148 59.7243 34.4021 55.525 32.4961Z" fill="#22668C"/>
<path d="M47.3423 67.2949C43.4283 70.1723 39.2788 72.6506 35.2379 75.2369C35.0366 75.1689 34.9951 75.0249 34.9313 74.9046C33.7751 72.7274 32.6302 70.5445 31.4595 68.3746C31.2544 67.9945 31.309 67.8138 31.7079 67.6348C32.0965 67.4604 32.4525 67.2138 32.8121 66.9832C34.15 66.1255 34.8507 64.9538 34.8281 63.3585C34.8157 62.4806 34.9453 61.599 35.0391 60.7219C35.2055 59.1673 35.0077 57.7226 33.8286 56.5338C33.5297 56.2324 33.2807 55.8879 33.0729 55.5177C32.7105 54.872 32.9332 54.2995 33.6749 54.1166C34.8224 53.8335 35.8309 54.149 36.6715 54.9303C37.4915 55.6924 38.0129 56.6599 38.5235 57.6273C38.8367 58.2205 39.1521 58.8137 39.4321 59.4218C39.7281 60.0644 40.1908 60.5626 40.7427 60.9986C41.5141 61.6079 42.4054 61.6874 43.3299 61.5035C45.4112 61.0894 47.3225 60.2099 49.268 59.4236C51.5627 58.496 53.5322 57.0547 55.5643 55.7107C56.52 55.0787 57.5353 54.5622 58.6432 54.2245C59.4702 53.9724 60.3023 53.9053 61.1421 54.146C61.5056 54.2502 61.8125 54.4445 61.9833 54.7896C62.2231 55.2741 62.0661 55.7635 61.5506 55.9974C61.0308 56.2332 60.4815 56.4066 59.9526 56.6244C58.5208 57.2139 57.314 58.1239 56.1638 59.1207C53.8838 61.0966 51.889 63.3482 49.687 65.3989C48.9598 66.076 48.1672 66.6788 47.3423 67.2949Z" fill="#22668C" stroke="#22668C"/>
<path d="M55.9485 50.2898C63.383 50.2893 70.7696 50.2888 78.1561 50.2885C78.332 50.2885 78.508 50.2875 78.6837 50.2933C79.0842 50.3065 79.3764 50.482 79.4208 50.8828C79.4631 51.2646 79.2508 51.5345 78.8815 51.6702C78.5012 51.8099 78.0921 51.7797 77.6982 51.8153C76.0446 51.9649 74.3873 52.077 72.732 52.2101C71.9223 52.2752 71.1586 52.4672 70.5281 53.0088C70.1815 53.3065 69.7567 53.3398 69.3139 53.3395C62.375 53.3354 55.4361 53.3369 48.4972 53.337C40.7109 53.3371 32.9246 53.3335 25.1384 53.3442C24.5508 53.345 24.0547 53.2198 23.5897 52.8558C22.7392 52.19 21.6821 52.2119 20.6687 52.1255C19.0302 51.9859 17.3893 51.8723 15.7502 51.7378C15.2626 51.6978 14.9048 51.3347 14.9145 50.9312C14.9247 50.5072 15.251 50.2923 15.8979 50.2922C27.0257 50.2911 38.1535 50.2906 49.2814 50.29C51.4877 50.2899 53.6941 50.2899 55.9485 50.2898Z" fill="#22668C"/>
<path d="M33.291 73.5209C33.985 74.8349 34.6542 76.1225 35.3453 77.3988C35.515 77.7122 35.4723 77.8776 35.1498 78.0601C33.0515 79.2475 30.9614 80.4486 28.8762 81.6574C28.5709 81.8344 28.4158 81.8078 28.2511 81.4863C26.5947 78.2514 24.9303 75.0203 23.2526 71.7957C23.0662 71.4373 23.2404 71.3484 23.524 71.2252C25.6532 70.2998 27.7845 69.3784 29.8981 68.4202C30.3346 68.2223 30.5271 68.2734 30.7402 68.6882C31.5671 70.2975 32.4267 71.8909 33.291 73.5209ZM32.261 76.6914C31.8641 76.5107 31.5731 76.6338 31.4286 77.0154C31.3189 77.305 31.4221 77.5631 31.7102 77.7204C31.9914 77.8741 32.232 77.787 32.4234 77.5621C32.6854 77.2541 32.629 76.9731 32.261 76.6914Z" fill="#22668C"/>
<path d="M45.5528 27.2896C45.3999 26.7661 45.1391 26.3549 44.755 26.0035C44.3563 25.6386 44.3566 25.3252 44.6983 24.9034C45.7576 23.5961 48.4517 23.5754 49.5336 24.8663C49.9345 25.3447 49.9339 25.6023 49.4862 26.0295C49.0625 26.4338 48.7664 26.8997 48.6875 27.4738C48.6489 27.7542 48.4963 27.8282 48.2332 27.8249C47.5468 27.8163 46.8591 27.7983 46.1741 27.8301C45.769 27.8489 45.5706 27.718 45.5528 27.2896Z" fill="#22668C" stroke="#22668C"/>
<path d="M41.9317 9.17976C40.5012 10.7513 40.5371 12.3956 41.6024 14.379C42.2439 15.5734 42.9871 16.7165 43.6841 17.8829C44.3212 18.949 44.2156 20.4187 43.445 21.2335C43.3392 21.3454 43.2385 21.4623 43.0723 21.49C43.0545 21.4465 43.0262 21.4067 43.0353 21.3955C43.7019 20.5766 43.583 19.7283 43.134 18.871C42.4742 17.6112 41.5754 16.4904 40.887 15.2468C40.4848 14.5204 40.1453 13.7719 39.992 12.9538C39.6159 10.9457 40.5492 9.54818 42.2066 8.49198C42.3598 8.3944 42.5011 8.24945 42.7721 8.27634C42.5609 8.65109 42.187 8.84556 41.9317 9.17976Z" fill="#22668C" stroke="#22668C"/>
<path d="M48.2286 16.8665C48.7878 17.7567 49.3587 18.604 49.2592 19.6878C49.1911 20.43 48.9355 21.0619 48.2834 21.4967C48.1595 21.4162 48.22 21.3425 48.2626 21.2892C48.7818 20.6392 48.7445 19.9397 48.4581 19.2212C48.1212 18.3756 47.5741 17.6447 47.078 16.8874C46.4779 15.9712 45.882 15.0542 45.4709 14.0387C44.5186 11.6868 45.3166 9.56354 47.606 8.35807C47.698 8.30962 47.7841 8.21418 47.9164 8.29309C47.916 8.498 47.72 8.55451 47.6038 8.66342C46.6291 9.57708 45.8957 10.6045 46.0081 11.9976C46.0824 12.9205 46.3913 13.782 46.8663 14.5849C47.3113 15.3374 47.7621 16.0867 48.2286 16.8665Z" fill="#22668C" stroke="#22668C"/>
<path d="M52.7654 8.62218C51.692 9.56813 50.9609 10.6504 51.1032 12.0912C51.2149 13.2218 51.7164 14.2274 52.3148 15.1915C52.8745 16.0936 53.4222 17.0029 53.9603 17.9173C54.5911 18.9893 54.4802 20.4294 53.7186 21.2231C53.6153 21.3307 53.5302 21.4761 53.3427 21.4718C53.3305 21.4399 53.3029 21.3998 53.3124 21.3879C54.0512 20.4729 53.7998 19.56 53.2978 18.6561C52.5934 17.3877 51.674 16.2443 51.0065 14.9536C50.4172 13.8142 49.9827 12.6427 50.263 11.3419C50.5831 9.85645 51.6176 8.93578 52.9321 8.25116C52.9511 8.24126 52.9896 8.26653 53.0231 8.27664C53.0314 8.44423 52.8803 8.50253 52.7654 8.62218Z" fill="#22668C" stroke="#22668C"/>
<path d="M116.221 58.7227C117.516 58.7227 118.594 58.8822 119.453 59.2012C120.312 59.5137 120.957 59.9824 121.387 60.6074C121.823 61.2324 122.041 62.0104 122.041 62.9414C122.041 63.5208 121.943 64.0482 121.748 64.5234C121.553 64.9987 121.273 65.4251 120.908 65.8027C120.55 66.1738 120.12 66.4993 119.619 66.7793L123.779 73H119.404L116.377 67.8047H115.4V73H111.543V58.7227H116.221ZM116.162 61.6426H115.4V64.9043H116.123C116.715 64.9043 117.201 64.7741 117.578 64.5137C117.956 64.2533 118.145 63.7878 118.145 63.1172C118.145 62.6549 117.988 62.2936 117.676 62.0332C117.363 61.7728 116.859 61.6426 116.162 61.6426ZM130.734 61.7402C131.808 61.7402 132.736 61.929 133.517 62.3066C134.298 62.6777 134.901 63.2376 135.324 63.9863C135.747 64.735 135.959 65.6725 135.959 66.7988V68.498H129.132C129.165 69.0775 129.38 69.5527 129.777 69.9238C130.181 70.2949 130.773 70.4805 131.554 70.4805C132.244 70.4805 132.876 70.4121 133.449 70.2754C134.028 70.1387 134.624 69.9271 135.236 69.6406V72.3848C134.702 72.6647 134.119 72.8698 133.488 73C132.856 73.1302 132.059 73.1953 131.095 73.1953C129.982 73.1953 128.986 72.9967 128.107 72.5996C127.228 72.2025 126.535 71.5872 126.027 70.7539C125.526 69.9206 125.275 68.8496 125.275 67.541C125.275 66.2129 125.503 65.1224 125.959 64.2695C126.414 63.4102 127.052 62.7754 127.873 62.3652C128.693 61.9486 129.647 61.7402 130.734 61.7402ZM130.871 64.3379C130.421 64.3379 130.044 64.4811 129.738 64.7676C129.438 65.0475 129.263 65.4902 129.211 66.0957H132.492C132.485 65.7702 132.42 65.474 132.296 65.207C132.173 64.9401 131.99 64.7285 131.75 64.5723C131.515 64.416 131.222 64.3379 130.871 64.3379ZM147.239 69.6016C147.239 70.3047 147.083 70.9264 146.771 71.4668C146.458 72.0072 145.957 72.4303 145.267 72.7363C144.583 73.0423 143.682 73.1953 142.562 73.1953C141.774 73.1953 141.068 73.153 140.443 73.0684C139.824 72.9837 139.196 72.821 138.558 72.5801V69.5234C139.254 69.8424 139.964 70.0736 140.687 70.2168C141.409 70.3535 141.979 70.4219 142.396 70.4219C142.825 70.4219 143.138 70.3763 143.333 70.2852C143.535 70.1875 143.636 70.0443 143.636 69.8555C143.636 69.6927 143.568 69.556 143.431 69.4453C143.301 69.3281 143.063 69.1947 142.718 69.0449C142.379 68.8952 141.901 68.6934 141.282 68.4395C140.67 68.1855 140.159 67.9089 139.749 67.6094C139.346 67.3099 139.043 66.9518 138.841 66.5352C138.639 66.1185 138.538 65.6074 138.538 65.002C138.538 63.9212 138.955 63.1074 139.788 62.5605C140.622 62.0137 141.725 61.7402 143.099 61.7402C143.828 61.7402 144.515 61.8216 145.159 61.9844C145.804 62.1406 146.471 62.3717 147.161 62.6777L146.116 65.1387C145.57 64.8913 145.016 64.6927 144.456 64.543C143.896 64.3932 143.45 64.3184 143.118 64.3184C142.819 64.3184 142.588 64.3574 142.425 64.4355C142.262 64.5137 142.181 64.6276 142.181 64.7773C142.181 64.9141 142.236 65.0345 142.347 65.1387C142.464 65.2428 142.682 65.3633 143.001 65.5C143.32 65.6367 143.786 65.8288 144.398 66.0762C145.042 66.3366 145.573 66.6165 145.989 66.916C146.413 67.209 146.725 67.5671 146.927 67.9902C147.135 68.4134 147.239 68.9505 147.239 69.6016ZM154.106 61.9355V73H150.288V61.9355H154.106ZM152.212 57.4824C152.759 57.4824 153.234 57.5964 153.638 57.8242C154.048 58.0521 154.253 58.5046 154.253 59.1816C154.253 59.8392 154.048 60.2852 153.638 60.5195C153.234 60.7474 152.759 60.8613 152.212 60.8613C151.652 60.8613 151.173 60.7474 150.776 60.5195C150.386 60.2852 150.19 59.8392 150.19 59.1816C150.19 58.5046 150.386 58.0521 150.776 57.8242C151.173 57.5964 151.652 57.4824 152.212 57.4824ZM161.11 73.1953C159.97 73.1953 159.033 72.7103 158.297 71.7402C157.562 70.7702 157.194 69.3509 157.194 67.4824C157.194 65.5944 157.571 64.1654 158.327 63.1953C159.082 62.2253 160.058 61.7402 161.256 61.7402C161.751 61.7402 162.177 61.8118 162.536 61.9551C162.894 62.0983 163.203 62.2936 163.463 62.541C163.73 62.7819 163.961 63.0553 164.157 63.3613H164.235C164.189 63.0814 164.147 62.6973 164.108 62.209C164.069 61.7142 164.049 61.2324 164.049 60.7637V57.8047H167.897V73H165.016L164.196 71.6035H164.049C163.873 71.8965 163.652 72.1634 163.385 72.4043C163.125 72.6452 162.806 72.8372 162.428 72.9805C162.057 73.1237 161.618 73.1953 161.11 73.1953ZM162.672 70.1777C163.284 70.1777 163.714 69.9857 163.961 69.6016C164.215 69.2109 164.352 68.6185 164.371 67.8242V67.5215C164.371 66.6491 164.248 65.9818 164 65.5195C163.76 65.0508 163.304 64.8164 162.633 64.8164C162.177 64.8164 161.8 65.0378 161.5 65.4805C161.201 65.9232 161.051 66.61 161.051 67.541C161.051 68.459 161.201 69.1296 161.5 69.5527C161.806 69.9694 162.197 70.1777 162.672 70.1777ZM176.424 61.7402C177.498 61.7402 178.426 61.929 179.207 62.3066C179.988 62.6777 180.59 63.2376 181.014 63.9863C181.437 64.735 181.648 65.6725 181.648 66.7988V68.498H174.822C174.855 69.0775 175.07 69.5527 175.467 69.9238C175.87 70.2949 176.463 70.4805 177.244 70.4805C177.934 70.4805 178.566 70.4121 179.139 70.2754C179.718 70.1387 180.314 69.9271 180.926 69.6406V72.3848C180.392 72.6647 179.809 72.8698 179.178 73C178.546 73.1302 177.749 73.1953 176.785 73.1953C175.672 73.1953 174.676 72.9967 173.797 72.5996C172.918 72.2025 172.225 71.5872 171.717 70.7539C171.215 69.9206 170.965 68.8496 170.965 67.541C170.965 66.2129 171.193 65.1224 171.648 64.2695C172.104 63.4102 172.742 62.7754 173.562 62.3652C174.383 61.9486 175.337 61.7402 176.424 61.7402ZM176.561 64.3379C176.111 64.3379 175.734 64.4811 175.428 64.7676C175.128 65.0475 174.952 65.4902 174.9 66.0957H178.182C178.175 65.7702 178.11 65.474 177.986 65.207C177.863 64.9401 177.68 64.7285 177.439 64.5723C177.205 64.416 176.912 64.3379 176.561 64.3379ZM191.63 61.7402C192.77 61.7402 193.701 62.0625 194.423 62.707C195.146 63.3516 195.507 64.3835 195.507 65.8027V73H191.689V66.9648C191.689 66.2292 191.582 65.6758 191.367 65.3047C191.158 64.9271 190.82 64.7383 190.351 64.7383C189.629 64.7383 189.143 65.0345 188.896 65.627C188.649 66.2129 188.525 67.056 188.525 68.1562V73H184.707V61.9355H187.588L188.105 63.4004H188.252C188.486 63.0488 188.766 62.7493 189.091 62.502C189.417 62.2546 189.791 62.0658 190.214 61.9355C190.638 61.8053 191.11 61.7402 191.63 61.7402ZM204.044 73.1953C202.924 73.1953 201.951 72.9967 201.124 72.5996C200.297 72.196 199.656 71.5775 199.2 70.7441C198.751 69.9043 198.527 68.8301 198.527 67.5215C198.527 66.1803 198.777 65.0833 199.279 64.2305C199.786 63.3776 200.48 62.7493 201.359 62.3457C202.238 61.9421 203.234 61.7402 204.347 61.7402C205.024 61.7402 205.665 61.8151 206.271 61.9648C206.883 62.1146 207.449 62.3197 207.97 62.5801L206.847 65.4023C206.391 65.2005 205.965 65.041 205.568 64.9238C205.177 64.8001 204.77 64.7383 204.347 64.7383C203.963 64.7383 203.624 64.8392 203.331 65.041C203.038 65.2428 202.81 65.5488 202.648 65.959C202.485 66.3626 202.404 66.877 202.404 67.502C202.404 68.14 202.485 68.6543 202.648 69.0449C202.817 69.4355 203.048 69.7188 203.341 69.8945C203.64 70.0703 203.982 70.1582 204.366 70.1582C204.92 70.1582 205.47 70.0736 206.017 69.9043C206.57 69.7285 207.094 69.4876 207.589 69.1816V72.2188C207.133 72.5182 206.619 72.7559 206.046 72.9316C205.473 73.1074 204.806 73.1953 204.044 73.1953ZM214.524 61.9355V73H210.706V61.9355H214.524ZM212.63 57.4824C213.177 57.4824 213.652 57.5964 214.055 57.8242C214.466 58.0521 214.671 58.5046 214.671 59.1816C214.671 59.8392 214.466 60.2852 214.055 60.5195C213.652 60.7474 213.177 60.8613 212.63 60.8613C212.07 60.8613 211.591 60.7474 211.194 60.5195C210.804 60.2852 210.608 59.8392 210.608 59.1816C210.608 58.5046 210.804 58.0521 211.194 57.8242C211.591 57.5964 212.07 57.4824 212.63 57.4824ZM223.491 61.7402C224.89 61.7402 225.984 62.0885 226.772 62.7852C227.56 63.4753 227.954 64.4616 227.954 65.7441V73H225.307L224.575 71.5352H224.496C224.184 71.9258 223.862 72.2448 223.53 72.4922C223.204 72.7331 222.83 72.9089 222.407 73.0195C221.983 73.1367 221.466 73.1953 220.854 73.1953C220.216 73.1953 219.643 73.0651 219.135 72.8047C218.627 72.5443 218.227 72.1504 217.934 71.623C217.641 71.0957 217.495 70.4284 217.495 69.6211C217.495 68.4362 217.905 67.5573 218.725 66.9844C219.545 66.4115 220.733 66.0892 222.289 66.0176L224.135 65.959V65.8027C224.135 65.3079 224.011 64.9564 223.764 64.748C223.523 64.5397 223.198 64.4355 222.787 64.4355C222.351 64.4355 221.863 64.5137 221.323 64.6699C220.789 64.8197 220.252 65.015 219.711 65.2559L218.608 62.7363C219.246 62.4108 219.968 62.1634 220.776 61.9941C221.583 61.8249 222.488 61.7402 223.491 61.7402ZM224.155 68.0586L223.276 68.0977C222.573 68.1237 222.078 68.2474 221.791 68.4688C221.511 68.6836 221.371 68.9928 221.371 69.3965C221.371 69.7741 221.472 70.054 221.674 70.2363C221.876 70.4121 222.143 70.5 222.475 70.5C222.937 70.5 223.331 70.3535 223.657 70.0605C223.989 69.7676 224.155 69.3867 224.155 68.918V68.0586ZM235.27 73H231.451V57.8047H235.27V73ZM250.868 64.6406H257.03V72.3359C256.295 72.5898 255.452 72.7982 254.501 72.9609C253.551 73.1172 252.555 73.1953 251.513 73.1953C250.139 73.1953 248.935 72.9284 247.9 72.3945C246.864 71.8607 246.057 71.0501 245.478 69.9629C244.898 68.8691 244.609 67.4889 244.609 65.8223C244.609 64.3249 244.895 63.0326 245.468 61.9453C246.041 60.8516 246.884 60.0085 247.997 59.416C249.117 58.8171 250.488 58.5176 252.109 58.5176C253.001 58.5176 253.847 58.6022 254.648 58.7715C255.448 58.9408 256.145 59.1556 256.738 59.416L255.517 62.4434C255.002 62.1895 254.469 62.0007 253.915 61.877C253.362 61.7467 252.766 61.6816 252.128 61.6816C251.275 61.6816 250.588 61.8737 250.068 62.2578C249.553 62.6419 249.179 63.1562 248.945 63.8008C248.71 64.4388 248.593 65.1452 248.593 65.9199C248.593 66.8053 248.717 67.554 248.964 68.166C249.218 68.7715 249.586 69.2337 250.068 69.5527C250.556 69.8652 251.145 70.0215 251.835 70.0215C252.063 70.0215 252.34 70.0052 252.665 69.9727C252.997 69.9401 253.248 69.901 253.417 69.8555V67.6191H250.868V64.6406ZM265.596 61.7402C266.671 61.7402 267.598 61.929 268.38 62.3066C269.161 62.6777 269.763 63.2376 270.186 63.9863C270.61 64.735 270.821 65.6725 270.821 66.7988V68.498H263.995C264.027 69.0775 264.242 69.5527 264.639 69.9238C265.043 70.2949 265.636 70.4805 266.417 70.4805C267.107 70.4805 267.738 70.4121 268.311 70.2754C268.891 70.1387 269.486 69.9271 270.098 69.6406V72.3848C269.565 72.6647 268.982 72.8698 268.35 73C267.719 73.1302 266.921 73.1953 265.958 73.1953C264.845 73.1953 263.848 72.9967 262.97 72.5996C262.091 72.2025 261.397 71.5872 260.889 70.7539C260.388 69.9206 260.137 68.8496 260.137 67.541C260.137 66.2129 260.365 65.1224 260.821 64.2695C261.277 63.4102 261.915 62.7754 262.735 62.3652C263.555 61.9486 264.509 61.7402 265.596 61.7402ZM265.733 64.3379C265.284 64.3379 264.906 64.4811 264.6 64.7676C264.301 65.0475 264.125 65.4902 264.073 66.0957H267.354C267.348 65.7702 267.283 65.474 267.159 65.207C267.035 64.9401 266.853 64.7285 266.612 64.5723C266.378 64.416 266.085 64.3379 265.733 64.3379ZM280.559 61.7402C280.767 61.7402 280.985 61.7565 281.213 61.7891C281.441 61.8151 281.61 61.8379 281.721 61.8574L281.379 65.4609C281.256 65.4284 281.096 65.4023 280.901 65.3828C280.705 65.3568 280.432 65.3438 280.08 65.3438C279.84 65.3438 279.582 65.3665 279.309 65.4121C279.036 65.4577 278.775 65.5553 278.528 65.7051C278.287 65.8483 278.088 66.0697 277.932 66.3691C277.776 66.6621 277.698 67.0592 277.698 67.5605V73H273.879V61.9355H276.721L277.317 63.7031H277.502C277.704 63.3385 277.961 63.0098 278.274 62.7168C278.593 62.4173 278.948 62.1797 279.338 62.0039C279.735 61.8281 280.142 61.7402 280.559 61.7402ZM288.012 61.9355V73H284.193V61.9355H288.012ZM286.117 57.4824C286.664 57.4824 287.139 57.5964 287.543 57.8242C287.953 58.0521 288.158 58.5046 288.158 59.1816C288.158 59.8392 287.953 60.2852 287.543 60.5195C287.139 60.7474 286.664 60.8613 286.117 60.8613C285.557 60.8613 285.079 60.7474 284.682 60.5195C284.291 60.2852 284.096 59.8392 284.096 59.1816C284.096 58.5046 284.291 58.0521 284.682 57.8242C285.079 57.5964 285.557 57.4824 286.117 57.4824ZM296.978 61.7402C298.378 61.7402 299.472 62.0885 300.259 62.7852C301.047 63.4753 301.441 64.4616 301.441 65.7441V73H298.795L298.062 71.5352H297.984C297.671 71.9258 297.349 72.2448 297.017 72.4922C296.692 72.7331 296.317 72.9089 295.894 73.0195C295.471 73.1367 294.953 73.1953 294.341 73.1953C293.703 73.1953 293.13 73.0651 292.623 72.8047C292.115 72.5443 291.714 72.1504 291.421 71.623C291.129 71.0957 290.982 70.4284 290.982 69.6211C290.982 68.4362 291.392 67.5573 292.212 66.9844C293.033 66.4115 294.221 66.0892 295.777 66.0176L297.623 65.959V65.8027C297.623 65.3079 297.499 64.9564 297.252 64.748C297.011 64.5397 296.685 64.4355 296.275 64.4355C295.839 64.4355 295.351 64.5137 294.81 64.6699C294.276 64.8197 293.739 65.015 293.199 65.2559L292.095 62.7363C292.733 62.4108 293.456 62.1634 294.263 61.9941C295.071 61.8249 295.976 61.7402 296.978 61.7402ZM297.642 68.0586L296.763 68.0977C296.06 68.1237 295.565 68.2474 295.279 68.4688C294.999 68.6836 294.859 68.9928 294.859 69.3965C294.859 69.7741 294.96 70.054 295.162 70.2363C295.364 70.4121 295.63 70.5 295.962 70.5C296.425 70.5 296.819 70.3535 297.144 70.0605C297.476 69.7676 297.642 69.3867 297.642 68.918V68.0586ZM301.255 57.6777V57.8828C301.021 58.0716 300.722 58.3027 300.357 58.5762C299.992 58.8431 299.605 59.123 299.195 59.416C298.791 59.7025 298.397 59.9759 298.013 60.2363C297.636 60.4967 297.31 60.7116 297.037 60.8809H294.498V60.5977C294.726 60.3503 294.999 60.0573 295.318 59.7188C295.637 59.3737 295.956 59.0221 296.275 58.6641C296.594 58.306 296.861 57.9772 297.076 57.6777H301.255ZM310.359 70.1777C310.704 70.1777 311.019 70.1419 311.306 70.0703C311.592 69.9987 311.892 69.9076 312.204 69.7969V72.5801C311.788 72.7624 311.345 72.9089 310.876 73.0195C310.414 73.1367 309.821 73.1953 309.099 73.1953C308.383 73.1953 307.751 73.0846 307.204 72.8633C306.657 72.6354 306.231 72.2448 305.925 71.6914C305.626 71.1315 305.476 70.3535 305.476 69.3574V64.7969H304.138V63.2441L305.837 62.043L306.823 59.7188H309.323V61.9355H312.038V64.7969H309.323V69.1035C309.323 69.4616 309.415 69.7318 309.597 69.9141C309.779 70.0898 310.033 70.1777 310.359 70.1777ZM321.718 61.7402C321.926 61.7402 322.144 61.7565 322.372 61.7891C322.6 61.8151 322.769 61.8379 322.88 61.8574L322.538 65.4609C322.414 65.4284 322.255 65.4023 322.059 65.3828C321.864 65.3568 321.591 65.3438 321.239 65.3438C320.998 65.3438 320.741 65.3665 320.468 65.4121C320.194 65.4577 319.934 65.5553 319.686 65.7051C319.445 65.8483 319.247 66.0697 319.091 66.3691C318.934 66.6621 318.856 67.0592 318.856 67.5605V73H315.038V61.9355H317.88L318.475 63.7031H318.661C318.863 63.3385 319.12 63.0098 319.432 62.7168C319.751 62.4173 320.106 62.1797 320.497 62.0039C320.894 61.8281 321.301 61.7402 321.718 61.7402ZM329.17 61.9355V73H325.352V61.9355H329.17ZM327.276 57.4824C327.823 57.4824 328.298 57.5964 328.702 57.8242C329.112 58.0521 329.317 58.5046 329.317 59.1816C329.317 59.8392 329.112 60.2852 328.702 60.5195C328.298 60.7474 327.823 60.8613 327.276 60.8613C326.716 60.8613 326.237 60.7474 325.84 60.5195C325.45 60.2852 325.254 59.8392 325.254 59.1816C325.254 58.5046 325.45 58.0521 325.84 57.8242C326.237 57.5964 326.716 57.4824 327.276 57.4824ZM337.775 73.1953C336.656 73.1953 335.682 72.9967 334.855 72.5996C334.029 72.196 333.387 71.5775 332.932 70.7441C332.482 69.9043 332.258 68.8301 332.258 67.5215C332.258 66.1803 332.508 65.0833 333.01 64.2305C333.518 63.3776 334.211 62.7493 335.09 62.3457C335.969 61.9421 336.965 61.7402 338.078 61.7402C338.755 61.7402 339.396 61.8151 340.002 61.9648C340.614 62.1146 341.18 62.3197 341.701 62.5801L340.578 65.4023C340.122 65.2005 339.696 65.041 339.299 64.9238C338.908 64.8001 338.501 64.7383 338.078 64.7383C337.694 64.7383 337.355 64.8392 337.062 65.041C336.77 65.2428 336.542 65.5488 336.379 65.959C336.216 66.3626 336.135 66.877 336.135 67.502C336.135 68.14 336.216 68.6543 336.379 69.0449C336.548 69.4355 336.779 69.7188 337.072 69.8945C337.372 70.0703 337.714 70.1582 338.098 70.1582C338.651 70.1582 339.201 70.0736 339.748 69.9043C340.301 69.7285 340.826 69.4876 341.32 69.1816V72.2188C340.865 72.5182 340.35 72.7559 339.777 72.9316C339.204 73.1074 338.537 73.1953 337.775 73.1953ZM354.984 67.4434C354.984 68.3678 354.857 69.1882 354.603 69.9043C354.349 70.6204 353.981 71.2227 353.5 71.7109C353.018 72.1992 352.435 72.5703 351.752 72.8242C351.068 73.0716 350.296 73.1953 349.437 73.1953C348.636 73.1953 347.901 73.0716 347.23 72.8242C346.566 72.5703 345.987 72.1992 345.492 71.7109C344.997 71.2227 344.613 70.6204 344.339 69.9043C344.073 69.1882 343.939 68.3678 343.939 67.4434C343.939 66.2194 344.16 65.1842 344.603 64.3379C345.052 63.4915 345.69 62.847 346.517 62.4043C347.351 61.9616 348.343 61.7402 349.496 61.7402C350.557 61.7402 351.501 61.9616 352.328 62.4043C353.155 62.847 353.802 63.4915 354.271 64.3379C354.746 65.1842 354.984 66.2194 354.984 67.4434ZM347.816 67.4434C347.816 68.0749 347.871 68.6087 347.982 69.0449C348.093 69.4746 348.268 69.8034 348.509 70.0312C348.757 70.2526 349.079 70.3633 349.476 70.3633C349.873 70.3633 350.189 70.2526 350.423 70.0312C350.658 69.8034 350.827 69.4746 350.931 69.0449C351.042 68.6087 351.097 68.0749 351.097 67.4434C351.097 66.8118 351.042 66.2845 350.931 65.8613C350.827 65.4382 350.655 65.1191 350.414 64.9043C350.179 64.6895 349.86 64.582 349.457 64.582C348.877 64.582 348.457 64.8229 348.197 65.3047C347.943 65.7865 347.816 66.4993 347.816 67.4434Z" fill="#22668C"/>
<path d="M140.64 22.28V50H136.04V37.16L126.8 50.64L117.56 37.16V50H112.92V22.28L126.8 42.48L140.64 22.28ZM157.662 22.32C159.582 22.32 161.382 22.68 163.062 23.4C164.742 24.12 166.209 25.1067 167.462 26.36C168.715 27.6133 169.702 29.08 170.422 30.76C171.142 32.44 171.502 34.24 171.502 36.16C171.502 38.08 171.142 39.88 170.422 41.56C169.702 43.24 168.715 44.7067 167.462 45.96C166.209 47.2133 164.742 48.2 163.062 48.92C161.382 49.64 159.582 50 157.662 50C155.742 50 153.942 49.64 152.262 48.92C150.582 48.2 149.102 47.2133 147.822 45.96C146.569 44.7067 145.582 43.24 144.862 41.56C144.142 39.88 143.782 38.08 143.782 36.16C143.782 34.24 144.142 32.44 144.862 30.76C145.582 29.08 146.569 27.6133 147.822 26.36C149.102 25.1067 150.582 24.12 152.262 23.4C153.942 22.68 155.742 22.32 157.662 22.32ZM166.862 36.16C166.862 34.88 166.622 33.68 166.142 32.56C165.662 31.44 164.995 30.4667 164.142 29.64C163.315 28.7867 162.342 28.12 161.222 27.64C160.129 27.16 158.942 26.92 157.662 26.92C156.382 26.92 155.182 27.16 154.062 27.64C152.942 28.12 151.955 28.7867 151.102 29.64C150.275 30.4667 149.622 31.44 149.142 32.56C148.662 33.68 148.422 34.88 148.422 36.16C148.422 37.44 148.662 38.64 149.142 39.76C149.622 40.88 150.275 41.8667 151.102 42.72C151.955 43.5467 152.942 44.2 154.062 44.68C155.182 45.16 156.382 45.4 157.662 45.4C158.942 45.4 160.129 45.16 161.222 44.68C162.342 44.2 163.315 43.5467 164.142 42.72C164.995 41.8667 165.662 40.88 166.142 39.76C166.622 38.64 166.862 37.44 166.862 36.16ZM188.678 40.4L195.438 50H189.798L179.998 36.12H186.198C186.838 36.12 187.438 36 187.998 35.76C188.558 35.52 189.038 35.2 189.438 34.8C189.864 34.3733 190.198 33.88 190.438 33.32C190.678 32.76 190.798 32.16 190.798 31.52C190.798 30.88 190.678 30.28 190.438 29.72C190.198 29.16 189.864 28.68 189.438 28.28C189.038 27.8533 188.558 27.52 187.998 27.28C187.438 27.04 186.838 26.92 186.198 26.92H179.278V36.12V40.76V50H174.678V22.28H186.198C187.478 22.28 188.678 22.52 189.798 23C190.918 23.48 191.891 24.1467 192.718 25C193.571 25.8267 194.238 26.8 194.718 27.92C195.198 29.04 195.438 30.24 195.438 31.52C195.438 32.56 195.264 33.56 194.918 34.52C194.598 35.48 194.144 36.3467 193.558 37.12C192.971 37.8933 192.251 38.5733 191.398 39.16C190.571 39.72 189.664 40.1333 188.678 40.4ZM207.38 22.32C209.3 22.32 211.1 22.68 212.78 23.4C214.46 24.12 215.927 25.1067 217.18 26.36C218.434 27.6133 219.42 29.08 220.14 30.76C220.86 32.44 221.22 34.24 221.22 36.16C221.22 38.08 220.86 39.88 220.14 41.56C219.42 43.24 218.434 44.7067 217.18 45.96C215.927 47.2133 214.46 48.2 212.78 48.92C211.1 49.64 209.3 50 207.38 50H198.74V45.4H207.38C208.66 45.4 209.86 45.16 210.98 44.68C212.1 44.2 213.074 43.5467 213.9 42.72C214.754 41.8667 215.42 40.88 215.9 39.76C216.38 38.64 216.62 37.44 216.62 36.16C216.62 34.88 216.38 33.68 215.9 32.56C215.42 31.44 214.754 30.4667 213.9 29.64C213.074 28.7867 212.1 28.12 210.98 27.64C209.86 27.16 208.66 26.92 207.38 26.92H198.74V22.32H207.38ZM203.34 27.64V44.68H198.74V27.64H203.34ZM238.131 22.32C240.051 22.32 241.851 22.68 243.531 23.4C245.211 24.12 246.677 25.1067 247.931 26.36C249.184 27.6133 250.171 29.08 250.891 30.76C251.611 32.44 251.971 34.24 251.971 36.16C251.971 38.08 251.611 39.88 250.891 41.56C250.171 43.24 249.184 44.7067 247.931 45.96C246.677 47.2133 245.211 48.2 243.531 48.92C241.851 49.64 240.051 50 238.131 50C236.211 50 234.411 49.64 232.731 48.92C231.051 48.2 229.571 47.2133 228.291 45.96C227.037 44.7067 226.051 43.24 225.331 41.56C224.611 39.88 224.251 38.08 224.251 36.16C224.251 34.24 224.611 32.44 225.331 30.76C226.051 29.08 227.037 27.6133 228.291 26.36C229.571 25.1067 231.051 24.12 232.731 23.4C234.411 22.68 236.211 22.32 238.131 22.32ZM247.331 36.16C247.331 34.88 247.091 33.68 246.611 32.56C246.131 31.44 245.464 30.4667 244.611 29.64C243.784 28.7867 242.811 28.12 241.691 27.64C240.597 27.16 239.411 26.92 238.131 26.92C236.851 26.92 235.651 27.16 234.531 27.64C233.411 28.12 232.424 28.7867 231.571 29.64C230.744 30.4667 230.091 31.44 229.611 32.56C229.131 33.68 228.891 34.88 228.891 36.16C228.891 37.44 229.131 38.64 229.611 39.76C230.091 40.88 230.744 41.8667 231.571 42.72C232.424 43.5467 233.411 44.2 234.531 44.68C235.651 45.16 236.851 45.4 238.131 45.4C239.411 45.4 240.597 45.16 241.691 44.68C242.811 44.2 243.784 43.5467 244.611 42.72C245.464 41.8667 246.131 40.88 246.611 39.76C247.091 38.64 247.331 37.44 247.331 36.16ZM282.867 22.28V50H278.267V37.16L269.027 50.64L259.787 37.16V50H255.147V22.28L269.027 42.48L282.867 22.28ZM299.888 22.32C301.808 22.32 303.608 22.68 305.288 23.4C306.968 24.12 308.435 25.1067 309.688 26.36C310.942 27.6133 311.928 29.08 312.648 30.76C313.368 32.44 313.728 34.24 313.728 36.16C313.728 38.08 313.368 39.88 312.648 41.56C311.928 43.24 310.942 44.7067 309.688 45.96C308.435 47.2133 306.968 48.2 305.288 48.92C303.608 49.64 301.808 50 299.888 50C297.968 50 296.168 49.64 294.488 48.92C292.808 48.2 291.328 47.2133 290.048 45.96C288.795 44.7067 287.808 43.24 287.088 41.56C286.368 39.88 286.008 38.08 286.008 36.16C286.008 34.24 286.368 32.44 287.088 30.76C287.808 29.08 288.795 27.6133 290.048 26.36C291.328 25.1067 292.808 24.12 294.488 23.4C296.168 22.68 297.968 22.32 299.888 22.32ZM309.088 36.16C309.088 34.88 308.848 33.68 308.368 32.56C307.888 31.44 307.222 30.4667 306.368 29.64C305.542 28.7867 304.568 28.12 303.448 27.64C302.355 27.16 301.168 26.92 299.888 26.92C298.608 26.92 297.408 27.16 296.288 27.64C295.168 28.12 294.182 28.7867 293.328 29.64C292.502 30.4667 291.848 31.44 291.368 32.56C290.888 33.68 290.648 34.88 290.648 36.16C290.648 37.44 290.888 38.64 291.368 39.76C291.848 40.88 292.502 41.8667 293.328 42.72C294.182 43.5467 295.168 44.2 296.288 44.68C297.408 45.16 298.608 45.4 299.888 45.4C301.168 45.4 302.355 45.16 303.448 44.68C304.568 44.2 305.542 43.5467 306.368 42.72C307.222 41.8667 307.888 40.88 308.368 39.76C308.848 38.64 309.088 37.44 309.088 36.16ZM337.271 25.64L334.871 29.52C333.564 28.6667 332.151 28.0267 330.631 27.6C329.138 27.1467 327.604 26.92 326.031 26.92C325.578 26.92 325.018 26.96 324.351 27.04C323.711 27.12 323.084 27.28 322.471 27.52C321.858 27.7333 321.324 28.0267 320.871 28.4C320.444 28.7733 320.231 29.2533 320.231 29.84C320.231 30.4267 320.458 30.9333 320.911 31.36C321.364 31.7867 321.938 32.1733 322.631 32.52C323.324 32.84 324.071 33.1333 324.871 33.4C325.698 33.64 326.471 33.8667 327.191 34.08C328.071 34.3467 329.084 34.6933 330.231 35.12C331.404 35.5467 332.498 36.0933 333.511 36.76C334.551 37.4267 335.418 38.24 336.111 39.2C336.831 40.1333 337.191 41.2533 337.191 42.56C337.191 43.92 336.844 45.08 336.151 46.04C335.458 46.9733 334.578 47.7333 333.511 48.32C332.444 48.9067 331.284 49.3333 330.031 49.6C328.804 49.8667 327.631 50 326.511 50C324.644 50 322.724 49.7333 320.751 49.2C318.804 48.6667 317.071 47.8133 315.551 46.64L318.351 43C318.831 43.4 319.431 43.7467 320.151 44.04C320.871 44.3333 321.618 44.5867 322.391 44.8C323.191 44.9867 323.978 45.1333 324.751 45.24C325.551 45.3467 326.258 45.4 326.871 45.4C327.298 45.4 327.818 45.36 328.431 45.28C329.044 45.2 329.631 45.0533 330.191 44.84C330.751 44.6267 331.231 44.3467 331.631 44C332.031 43.6267 332.231 43.16 332.231 42.6C332.231 42.0133 332.071 41.5067 331.751 41.08C331.431 40.6533 331.004 40.28 330.471 39.96C329.938 39.64 329.298 39.36 328.551 39.12C327.804 38.88 327.018 38.64 326.191 38.4C325.124 38.1067 323.978 37.7467 322.751 37.32C321.524 36.8667 320.378 36.3067 319.311 35.64C318.271 34.9467 317.391 34.12 316.671 33.16C315.978 32.2 315.631 31.0533 315.631 29.72C315.631 28.36 315.978 27.2133 316.671 26.28C317.391 25.3467 318.271 24.5867 319.311 24C320.378 23.4133 321.538 22.9867 322.791 22.72C324.044 22.4533 325.231 22.32 326.351 22.32C327.258 22.32 328.191 22.3867 329.151 22.52C330.138 22.6533 331.098 22.8533 332.031 23.12C332.991 23.3867 333.911 23.7333 334.791 24.16C335.698 24.5867 336.524 25.08 337.271 25.64Z" fill="#22668C"/>
</svg>
