<svg width="360" height="95" viewBox="0 0 360 95" fill="none" xmlns="http://www.w3.org/2000/svg">
<path d="M142.938 15.201V45H137.993V31.197L128.06 45.688L118.127 31.197V45H113.139V15.201L128.06 36.916L142.938 15.201ZM161.237 15.244C163.301 15.244 165.236 15.631 167.042 16.405C168.848 17.179 170.424 18.2397 171.772 19.587C173.119 20.9343 174.18 22.511 174.954 24.317C175.728 26.123 176.115 28.058 176.115 30.122C176.115 32.186 175.728 34.121 174.954 35.927C174.18 37.733 173.119 39.3097 171.772 40.657C170.424 42.0043 168.848 43.065 167.042 43.839C165.236 44.613 163.301 45 161.237 45C159.173 45 157.238 44.613 155.432 43.839C153.626 43.065 152.035 42.0043 150.659 40.657C149.311 39.3097 148.251 37.733 147.477 35.927C146.703 34.121 146.316 32.186 146.316 30.122C146.316 28.058 146.703 26.123 147.477 24.317C148.251 22.511 149.311 20.9343 150.659 19.587C152.035 18.2397 153.626 17.179 155.432 16.405C157.238 15.631 159.173 15.244 161.237 15.244ZM171.127 30.122C171.127 28.746 170.869 27.456 170.353 26.252C169.837 25.048 169.12 24.0017 168.203 23.113C167.314 22.1957 166.268 21.479 165.064 20.963C163.888 20.447 162.613 20.189 161.237 20.189C159.861 20.189 158.571 20.447 157.367 20.963C156.163 21.479 155.102 22.1957 154.185 23.113C153.296 24.0017 152.594 25.048 152.078 26.252C151.562 27.456 151.304 28.746 151.304 30.122C151.304 31.498 151.562 32.788 152.078 33.992C152.594 35.196 153.296 36.2567 154.185 37.174C155.102 38.0627 156.163 38.765 157.367 39.281C158.571 39.797 159.861 40.055 161.237 40.055C162.613 40.055 163.888 39.797 165.064 39.281C166.268 38.765 167.314 38.0627 168.203 37.174C169.12 36.2567 169.837 35.196 170.353 33.992C170.869 32.788 171.127 31.498 171.127 30.122ZM194.579 34.68L201.846 45H195.783L185.248 30.079H191.913C192.601 30.079 193.246 29.95 193.848 29.692C194.45 29.434 194.966 29.09 195.396 28.66C195.854 28.2013 196.213 27.671 196.471 27.069C196.729 26.467 196.858 25.822 196.858 25.134C196.858 24.446 196.729 23.801 196.471 23.199C196.213 22.597 195.854 22.081 195.396 21.651C194.966 21.1923 194.45 20.834 193.848 20.576C193.246 20.318 192.601 20.189 191.913 20.189H184.474V30.079V35.067V45H179.529V15.201H191.913C193.289 15.201 194.579 15.459 195.783 15.975C196.987 16.491 198.033 17.2077 198.922 18.125C199.839 19.0137 200.556 20.06 201.072 21.264C201.588 22.468 201.846 23.758 201.846 25.134C201.846 26.252 201.659 27.327 201.287 28.359C200.943 29.391 200.455 30.3227 199.825 31.154C199.194 31.9853 198.42 32.7163 197.503 33.347C196.614 33.949 195.639 34.3933 194.579 34.68ZM214.684 15.244C216.748 15.244 218.683 15.631 220.489 16.405C222.295 17.179 223.872 18.2397 225.219 19.587C226.566 20.9343 227.627 22.511 228.401 24.317C229.175 26.123 229.562 28.058 229.562 30.122C229.562 32.186 229.175 34.121 228.401 35.927C227.627 37.733 226.566 39.3097 225.219 40.657C223.872 42.0043 222.295 43.065 220.489 43.839C218.683 44.613 216.748 45 214.684 45H205.396V40.055H214.684C216.06 40.055 217.35 39.797 218.554 39.281C219.758 38.765 220.804 38.0627 221.693 37.174C222.61 36.2567 223.327 35.196 223.843 33.992C224.359 32.788 224.617 31.498 224.617 30.122C224.617 28.746 224.359 27.456 223.843 26.252C223.327 25.048 222.61 24.0017 221.693 23.113C220.804 22.1957 219.758 21.479 218.554 20.963C217.35 20.447 216.06 20.189 214.684 20.189H205.396V15.244H214.684ZM210.341 20.963V39.281H205.396V20.963H210.341ZM247.74 15.244C249.804 15.244 251.739 15.631 253.545 16.405C255.351 17.179 256.928 18.2397 258.275 19.587C259.623 20.9343 260.683 22.511 261.457 24.317C262.231 26.123 262.618 28.058 262.618 30.122C262.618 32.186 262.231 34.121 261.457 35.927C260.683 37.733 259.623 39.3097 258.275 40.657C256.928 42.0043 255.351 43.065 253.545 43.839C251.739 44.613 249.804 45 247.74 45C245.676 45 243.741 44.613 241.935 43.839C240.129 43.065 238.538 42.0043 237.162 40.657C235.815 39.3097 234.754 37.733 233.98 35.927C233.206 34.121 232.819 32.186 232.819 30.122C232.819 28.058 233.206 26.123 233.98 24.317C234.754 22.511 235.815 20.9343 237.162 19.587C238.538 18.2397 240.129 17.179 241.935 16.405C243.741 15.631 245.676 15.244 247.74 15.244ZM257.63 30.122C257.63 28.746 257.372 27.456 256.856 26.252C256.34 25.048 255.624 24.0017 254.706 23.113C253.818 22.1957 252.771 21.479 251.567 20.963C250.392 20.447 249.116 20.189 247.74 20.189C246.364 20.189 245.074 20.447 243.87 20.963C242.666 21.479 241.606 22.1957 240.688 23.113C239.8 24.0017 239.097 25.048 238.581 26.252C238.065 27.456 237.807 28.746 237.807 30.122C237.807 31.498 238.065 32.788 238.581 33.992C239.097 35.196 239.8 36.2567 240.688 37.174C241.606 38.0627 242.666 38.765 243.87 39.281C245.074 39.797 246.364 40.055 247.74 40.055C249.116 40.055 250.392 39.797 251.567 39.281C252.771 38.765 253.818 38.0627 254.706 37.174C255.624 36.2567 256.34 35.196 256.856 33.992C257.372 32.788 257.63 31.498 257.63 30.122ZM295.832 15.201V45H290.887V31.197L280.954 45.688L271.021 31.197V45H266.033V15.201L280.954 36.916L295.832 15.201ZM314.13 15.244C316.194 15.244 318.129 15.631 319.935 16.405C321.741 17.179 323.318 18.2397 324.665 19.587C326.012 20.9343 327.073 22.511 327.847 24.317C328.621 26.123 329.008 28.058 329.008 30.122C329.008 32.186 328.621 34.121 327.847 35.927C327.073 37.733 326.012 39.3097 324.665 40.657C323.318 42.0043 321.741 43.065 319.935 43.839C318.129 44.613 316.194 45 314.13 45C312.066 45 310.131 44.613 308.325 43.839C306.519 43.065 304.928 42.0043 303.552 40.657C302.205 39.3097 301.144 37.733 300.37 35.927C299.596 34.121 299.209 32.186 299.209 30.122C299.209 28.058 299.596 26.123 300.37 24.317C301.144 22.511 302.205 20.9343 303.552 19.587C304.928 18.2397 306.519 17.179 308.325 16.405C310.131 15.631 312.066 15.244 314.13 15.244ZM324.02 30.122C324.02 28.746 323.762 27.456 323.246 26.252C322.73 25.048 322.013 24.0017 321.096 23.113C320.207 22.1957 319.161 21.479 317.957 20.963C316.782 20.447 315.506 20.189 314.13 20.189C312.754 20.189 311.464 20.447 310.26 20.963C309.056 21.479 307.995 22.1957 307.078 23.113C306.189 24.0017 305.487 25.048 304.971 26.252C304.455 27.456 304.197 28.746 304.197 30.122C304.197 31.498 304.455 32.788 304.971 33.992C305.487 35.196 306.189 36.2567 307.078 37.174C307.995 38.0627 309.056 38.765 310.26 39.281C311.464 39.797 312.754 40.055 314.13 40.055C315.506 40.055 316.782 39.797 317.957 39.281C319.161 38.765 320.207 38.0627 321.096 37.174C322.013 36.2567 322.73 35.196 323.246 33.992C323.762 32.788 324.02 31.498 324.02 30.122ZM354.316 18.813L351.736 22.984C350.332 22.0667 348.812 21.3787 347.178 20.92C345.573 20.4327 343.925 20.189 342.233 20.189C341.746 20.189 341.144 20.232 340.427 20.318C339.739 20.404 339.066 20.576 338.406 20.834C337.747 21.0633 337.174 21.3787 336.686 21.78C336.228 22.1813 335.998 22.6973 335.998 23.328C335.998 23.9587 336.242 24.5033 336.729 24.962C337.217 25.4207 337.833 25.8363 338.578 26.209C339.324 26.553 340.126 26.8683 340.986 27.155C341.875 27.413 342.706 27.6567 343.48 27.886C344.426 28.1727 345.516 28.5453 346.748 29.004C348.01 29.4627 349.185 30.0503 350.274 30.767C351.392 31.4837 352.324 32.358 353.069 33.39C353.843 34.3933 354.23 35.5973 354.23 37.002C354.23 38.464 353.858 39.711 353.112 40.743C352.367 41.7463 351.421 42.5633 350.274 43.194C349.128 43.8247 347.881 44.2833 346.533 44.57C345.215 44.8567 343.953 45 342.749 45C340.743 45 338.679 44.7133 336.557 44.14C334.465 43.5667 332.601 42.6493 330.967 41.388L333.977 37.475C334.493 37.905 335.138 38.2777 335.912 38.593C336.686 38.9083 337.489 39.1807 338.32 39.41C339.18 39.6107 340.026 39.7683 340.857 39.883C341.717 39.9977 342.477 40.055 343.136 40.055C343.595 40.055 344.154 40.012 344.813 39.926C345.473 39.84 346.103 39.6823 346.705 39.453C347.307 39.2237 347.823 38.9227 348.253 38.55C348.683 38.1487 348.898 37.647 348.898 37.045C348.898 36.4143 348.726 35.8697 348.382 35.411C348.038 34.9523 347.58 34.551 347.006 34.207C346.433 33.863 345.745 33.562 344.942 33.304C344.14 33.046 343.294 32.788 342.405 32.53C341.259 32.2147 340.026 31.8277 338.707 31.369C337.389 30.8817 336.156 30.2797 335.009 29.563C333.891 28.8177 332.945 27.929 332.171 26.897C331.426 25.865 331.053 24.6323 331.053 23.199C331.053 21.737 331.426 20.5043 332.171 19.501C332.945 18.4977 333.891 17.6807 335.009 17.05C336.156 16.4193 337.403 15.9607 338.75 15.674C340.098 15.3873 341.373 15.244 342.577 15.244C343.552 15.244 344.555 15.3157 345.587 15.459C346.648 15.6023 347.68 15.8173 348.683 16.104C349.715 16.3907 350.704 16.7633 351.65 17.222C352.625 17.6807 353.514 18.211 354.316 18.813Z" fill="#22668C"/>
<path d="M92.4 47.2C92.4 72.1633 72.1633 92.4 47.2 92.4C22.2367 92.4 2 72.1633 2 47.2C2 22.2367 22.2367 2 47.2 2C72.1633 2 92.4 22.2367 92.4 47.2Z" stroke="#22668C" stroke-width="3"/>
<path d="M55.5255 32.4961C54.4631 32.0188 53.3942 31.6654 52.2776 31.4303C52.7406 31.6422 53.206 31.8489 53.666 32.0668C58.0729 34.1542 61.5249 37.1911 63.6261 41.5518C64.5946 43.5619 65.1567 45.6847 65.389 47.8922C65.4345 48.3244 65.4687 48.7554 65.4904 49.1891C65.5057 49.4945 65.3899 49.607 65.0797 49.6023C64.3604 49.5914 63.6408 49.6001 62.9212 49.6001C50.3375 49.5996 37.7537 49.599 25.1699 49.5984C25.058 49.5984 24.9461 49.5979 24.8342 49.597C24.1633 49.592 24.1263 49.5549 24.1812 48.9048C24.6522 43.3231 26.8776 38.508 30.9941 34.575C34.5108 31.215 38.7291 29.125 43.6318 28.416C54.0683 26.907 63.9343 32.1737 68.2247 41.5434C69.3108 43.9153 69.9195 46.4098 70.078 49.0022C70.1136 49.584 70.0816 49.5951 69.4703 49.598C68.9107 49.6006 68.3509 49.5892 67.7915 49.5995C67.4708 49.6054 67.349 49.4844 67.3267 49.1644C67.133 46.3767 66.4137 43.724 65.0578 41.2524C62.8977 37.3148 59.7247 34.4021 55.5255 32.4961Z" fill="#22668C"/>
<path d="M47.3428 67.2949C43.4288 70.1723 39.2793 72.6506 35.2383 75.2369C35.0371 75.1689 34.9956 75.0249 34.9318 74.9046C33.7756 72.7274 32.6307 70.5445 31.46 68.3746C31.2549 67.9945 31.3095 67.8138 31.7084 67.6348C32.097 67.4604 32.453 67.2138 32.8126 66.9832C34.1505 66.1255 34.8512 64.9538 34.8286 63.3585C34.8162 62.4806 34.9457 61.599 35.0396 60.7219C35.206 59.1673 35.0082 57.7226 33.8291 56.5338C33.5302 56.2324 33.2812 55.8879 33.0734 55.5177C32.7109 54.872 32.9337 54.2995 33.6754 54.1166C34.8229 53.8335 35.8314 54.149 36.672 54.9303C37.4919 55.6924 38.0134 56.6599 38.524 57.6273C38.8372 58.2205 39.1526 58.8137 39.4326 59.4218C39.7286 60.0644 40.1913 60.5626 40.7432 60.9986C41.5145 61.6079 42.4059 61.6874 43.3303 61.5035C45.4117 61.0894 47.323 60.2099 49.2684 59.4236C51.5632 58.496 53.5327 57.0547 55.5648 55.7107C56.5205 55.0787 57.5358 54.5622 58.6437 54.2245C59.4707 53.9724 60.3028 53.9053 61.1426 54.146C61.5061 54.2502 61.813 54.4445 61.9838 54.7896C62.2236 55.2741 62.0666 55.7635 61.551 55.9974C61.0313 56.2332 60.482 56.4066 59.9531 56.6244C58.5213 57.2139 57.3145 58.1239 56.1643 59.1207C53.8843 61.0966 51.8895 63.3482 49.6874 65.3989C48.9603 66.076 48.1677 66.6788 47.3428 67.2949Z" fill="#22668C" stroke="#22668C"/>
<path d="M55.9487 50.2898C63.3832 50.2893 70.7698 50.2888 78.1564 50.2885C78.3322 50.2885 78.5082 50.2875 78.6839 50.2933C79.0845 50.3065 79.3766 50.482 79.421 50.8828C79.4633 51.2646 79.2511 51.5345 78.8817 51.6702C78.5015 51.8098 78.0924 51.7797 77.6984 51.8153C76.0448 51.9649 74.3876 52.077 72.7323 52.2101C71.9226 52.2752 71.1588 52.4672 70.5283 53.0088C70.1817 53.3065 69.757 53.3398 69.3141 53.3395C62.3752 53.3354 55.4363 53.3369 48.4974 53.337C40.7112 53.3371 32.9249 53.3335 25.1386 53.3442C24.551 53.345 24.0549 53.2198 23.5899 52.8558C22.7395 52.19 21.6824 52.2119 20.669 52.1255C19.0304 51.9859 17.3895 51.8723 15.7505 51.7378C15.2628 51.6978 14.9051 51.3347 14.9147 50.9312C14.9249 50.5072 15.2512 50.2923 15.8981 50.2922C27.026 50.2911 38.1538 50.2906 49.2816 50.29C51.488 50.2899 53.6944 50.2899 55.9487 50.2898Z" fill="#22668C"/>
<path d="M33.2915 73.5208C33.9855 74.8349 34.6547 76.1224 35.3458 77.3987C35.5155 77.7121 35.4728 77.8775 35.1503 78.0601C33.052 79.2474 30.9619 80.4485 28.8767 81.6573C28.5714 81.8343 28.4163 81.8078 28.2516 81.4862C26.5952 78.2513 24.9308 75.0202 23.2531 71.7956C23.0667 71.4372 23.2409 71.3484 23.5245 71.2251C25.6537 70.2997 27.785 69.3783 29.8986 68.4202C30.3351 68.2222 30.5275 68.2733 30.7407 68.6881C31.5676 70.2974 32.4272 71.8908 33.2915 73.5208ZM32.2615 76.6914C31.8646 76.5107 31.5736 76.6337 31.4291 77.0153C31.3194 77.305 31.4226 77.563 31.7107 77.7204C31.9919 77.874 32.2325 77.7869 32.4238 77.562C32.6859 77.254 32.6295 76.973 32.2615 76.6914Z" fill="#22668C"/>
<path d="M45.5529 27.2895C45.4 26.766 45.1392 26.3549 44.7552 26.0034C44.3564 25.6385 44.3567 25.3252 44.6985 24.9034C45.7577 23.596 48.4518 23.5753 49.5337 24.8662C49.9347 25.3446 49.934 25.6023 49.4863 26.0295C49.0626 26.4338 48.7665 26.8997 48.6876 27.4737C48.6491 27.7542 48.4964 27.8282 48.2333 27.8249C47.5469 27.8162 46.8592 27.7983 46.1743 27.8301C45.7691 27.8489 45.5707 27.7179 45.5529 27.2895Z" fill="#22668C" stroke="#22668C"/>
<path d="M41.9317 9.17976C40.5012 10.7513 40.5371 12.3956 41.6024 14.379C42.2439 15.5734 42.9871 16.7165 43.6841 17.8829C44.3212 18.949 44.2156 20.4187 43.445 21.2335C43.3392 21.3454 43.2385 21.4623 43.0723 21.49C43.0545 21.4465 43.0262 21.4067 43.0353 21.3955C43.7019 20.5766 43.583 19.7283 43.134 18.871C42.4742 17.6112 41.5754 16.4904 40.887 15.2468C40.4848 14.5204 40.1453 13.7719 39.992 12.9538C39.6159 10.9457 40.5492 9.54818 42.2066 8.49198C42.3598 8.3944 42.5011 8.24945 42.7721 8.27634C42.5609 8.65109 42.187 8.84556 41.9317 9.17976Z" fill="#22668C" stroke="#22668C"/>
<path d="M48.2289 16.8665C48.788 17.7568 49.3589 18.604 49.2595 19.6879C49.1914 20.43 48.9358 21.062 48.2837 21.4968C48.1597 21.4162 48.2202 21.3426 48.2629 21.2892C48.7821 20.6392 48.7447 19.9398 48.4584 19.2213C48.1214 18.3757 47.5743 17.6448 47.0783 16.8874C46.4782 15.9713 45.8823 15.0543 45.4711 14.0388C44.5188 11.6869 45.3168 9.5636 47.6062 8.35813C47.6982 8.30968 47.7843 8.21424 47.9166 8.29315C47.9162 8.49806 47.7203 8.55457 47.6041 8.66348C46.6293 9.57714 45.896 10.6045 46.0083 11.9976C46.0827 12.9205 46.3916 13.782 46.8665 14.585C47.3116 15.3374 47.7623 16.0868 48.2289 16.8665Z" fill="#22668C" stroke="#22668C"/>
<path d="M52.7654 8.62218C51.692 9.56813 50.9609 10.6504 51.1032 12.0912C51.2149 13.2218 51.7164 14.2274 52.3148 15.1915C52.8745 16.0936 53.4222 17.0029 53.9603 17.9173C54.5911 18.9893 54.4802 20.4294 53.7186 21.2231C53.6153 21.3307 53.5302 21.4761 53.3427 21.4718C53.3305 21.4399 53.3029 21.3998 53.3124 21.3879C54.0512 20.4729 53.7998 19.56 53.2978 18.6561C52.5934 17.3877 51.674 16.2443 51.0065 14.9536C50.4172 13.8142 49.9827 12.6427 50.263 11.3419C50.5831 9.85645 51.6176 8.93578 52.9321 8.25116C52.9511 8.24126 52.9896 8.26653 53.0231 8.27664C53.0314 8.44423 52.8803 8.50253 52.7654 8.62218Z" fill="#22668C" stroke="#22668C"/>
<path d="M116.221 59.7227C117.516 59.7227 118.594 59.8822 119.453 60.2012C120.312 60.5137 120.957 60.9824 121.387 61.6074C121.823 62.2324 122.041 63.0104 122.041 63.9414C122.041 64.5208 121.943 65.0482 121.748 65.5234C121.553 65.9987 121.273 66.4251 120.908 66.8027C120.55 67.1738 120.12 67.4993 119.619 67.7793L123.779 74H119.404L116.377 68.8047H115.4V74H111.543V59.7227H116.221ZM116.162 62.6426H115.4V65.9043H116.123C116.715 65.9043 117.201 65.7741 117.578 65.5137C117.956 65.2533 118.145 64.7878 118.145 64.1172C118.145 63.6549 117.988 63.2936 117.676 63.0332C117.363 62.7728 116.859 62.6426 116.162 62.6426ZM130.734 62.7402C131.808 62.7402 132.736 62.929 133.517 63.3066C134.298 63.6777 134.901 64.2376 135.324 64.9863C135.747 65.735 135.959 66.6725 135.959 67.7988V69.498H129.132C129.165 70.0775 129.38 70.5527 129.777 70.9238C130.181 71.2949 130.773 71.4805 131.554 71.4805C132.244 71.4805 132.876 71.4121 133.449 71.2754C134.028 71.1387 134.624 70.9271 135.236 70.6406V73.3848C134.702 73.6647 134.119 73.8698 133.488 74C132.856 74.1302 132.059 74.1953 131.095 74.1953C129.982 74.1953 128.986 73.9967 128.107 73.5996C127.228 73.2025 126.535 72.5872 126.027 71.7539C125.526 70.9206 125.275 69.8496 125.275 68.541C125.275 67.2129 125.503 66.1224 125.959 65.2695C126.414 64.4102 127.052 63.7754 127.873 63.3652C128.693 62.9486 129.647 62.7402 130.734 62.7402ZM130.871 65.3379C130.421 65.3379 130.044 65.4811 129.738 65.7676C129.438 66.0475 129.263 66.4902 129.211 67.0957H132.492C132.485 66.7702 132.42 66.474 132.296 66.207C132.173 65.9401 131.99 65.7285 131.75 65.5723C131.515 65.416 131.222 65.3379 130.871 65.3379ZM147.239 70.6016C147.239 71.3047 147.083 71.9264 146.771 72.4668C146.458 73.0072 145.957 73.4303 145.267 73.7363C144.583 74.0423 143.682 74.1953 142.562 74.1953C141.774 74.1953 141.068 74.153 140.443 74.0684C139.824 73.9837 139.196 73.821 138.558 73.5801V70.5234C139.254 70.8424 139.964 71.0736 140.687 71.2168C141.409 71.3535 141.979 71.4219 142.396 71.4219C142.825 71.4219 143.138 71.3763 143.333 71.2852C143.535 71.1875 143.636 71.0443 143.636 70.8555C143.636 70.6927 143.568 70.556 143.431 70.4453C143.301 70.3281 143.063 70.1947 142.718 70.0449C142.379 69.8952 141.901 69.6934 141.282 69.4395C140.67 69.1855 140.159 68.9089 139.749 68.6094C139.346 68.3099 139.043 67.9518 138.841 67.5352C138.639 67.1185 138.538 66.6074 138.538 66.002C138.538 64.9212 138.955 64.1074 139.788 63.5605C140.622 63.0137 141.725 62.7402 143.099 62.7402C143.828 62.7402 144.515 62.8216 145.159 62.9844C145.804 63.1406 146.471 63.3717 147.161 63.6777L146.116 66.1387C145.57 65.8913 145.016 65.6927 144.456 65.543C143.896 65.3932 143.45 65.3184 143.118 65.3184C142.819 65.3184 142.588 65.3574 142.425 65.4355C142.262 65.5137 142.181 65.6276 142.181 65.7773C142.181 65.9141 142.236 66.0345 142.347 66.1387C142.464 66.2428 142.682 66.3633 143.001 66.5C143.32 66.6367 143.786 66.8288 144.398 67.0762C145.042 67.3366 145.573 67.6165 145.989 67.916C146.413 68.209 146.725 68.5671 146.927 68.9902C147.135 69.4134 147.239 69.9505 147.239 70.6016ZM154.106 62.9355V74H150.288V62.9355H154.106ZM152.212 58.4824C152.759 58.4824 153.234 58.5964 153.638 58.8242C154.048 59.0521 154.253 59.5046 154.253 60.1816C154.253 60.8392 154.048 61.2852 153.638 61.5195C153.234 61.7474 152.759 61.8613 152.212 61.8613C151.652 61.8613 151.173 61.7474 150.776 61.5195C150.386 61.2852 150.19 60.8392 150.19 60.1816C150.19 59.5046 150.386 59.0521 150.776 58.8242C151.173 58.5964 151.652 58.4824 152.212 58.4824ZM161.11 74.1953C159.97 74.1953 159.033 73.7103 158.297 72.7402C157.562 71.7702 157.194 70.3509 157.194 68.4824C157.194 66.5944 157.571 65.1654 158.327 64.1953C159.082 63.2253 160.058 62.7402 161.256 62.7402C161.751 62.7402 162.177 62.8118 162.536 62.9551C162.894 63.0983 163.203 63.2936 163.463 63.541C163.73 63.7819 163.961 64.0553 164.157 64.3613H164.235C164.189 64.0814 164.147 63.6973 164.108 63.209C164.069 62.7142 164.049 62.2324 164.049 61.7637V58.8047H167.897V74H165.016L164.196 72.6035H164.049C163.873 72.8965 163.652 73.1634 163.385 73.4043C163.125 73.6452 162.806 73.8372 162.428 73.9805C162.057 74.1237 161.618 74.1953 161.11 74.1953ZM162.672 71.1777C163.284 71.1777 163.714 70.9857 163.961 70.6016C164.215 70.2109 164.352 69.6185 164.371 68.8242V68.5215C164.371 67.6491 164.248 66.9818 164 66.5195C163.76 66.0508 163.304 65.8164 162.633 65.8164C162.177 65.8164 161.8 66.0378 161.5 66.4805C161.201 66.9232 161.051 67.61 161.051 68.541C161.051 69.459 161.201 70.1296 161.5 70.5527C161.806 70.9694 162.197 71.1777 162.672 71.1777ZM176.424 62.7402C177.498 62.7402 178.426 62.929 179.207 63.3066C179.988 63.6777 180.59 64.2376 181.014 64.9863C181.437 65.735 181.648 66.6725 181.648 67.7988V69.498H174.822C174.855 70.0775 175.07 70.5527 175.467 70.9238C175.87 71.2949 176.463 71.4805 177.244 71.4805C177.934 71.4805 178.566 71.4121 179.139 71.2754C179.718 71.1387 180.314 70.9271 180.926 70.6406V73.3848C180.392 73.6647 179.809 73.8698 179.178 74C178.546 74.1302 177.749 74.1953 176.785 74.1953C175.672 74.1953 174.676 73.9967 173.797 73.5996C172.918 73.2025 172.225 72.5872 171.717 71.7539C171.215 70.9206 170.965 69.8496 170.965 68.541C170.965 67.2129 171.193 66.1224 171.648 65.2695C172.104 64.4102 172.742 63.7754 173.562 63.3652C174.383 62.9486 175.337 62.7402 176.424 62.7402ZM176.561 65.3379C176.111 65.3379 175.734 65.4811 175.428 65.7676C175.128 66.0475 174.952 66.4902 174.9 67.0957H178.182C178.175 66.7702 178.11 66.474 177.986 66.207C177.863 65.9401 177.68 65.7285 177.439 65.5723C177.205 65.416 176.912 65.3379 176.561 65.3379ZM191.63 62.7402C192.77 62.7402 193.701 63.0625 194.423 63.707C195.146 64.3516 195.507 65.3835 195.507 66.8027V74H191.689V67.9648C191.689 67.2292 191.582 66.6758 191.367 66.3047C191.158 65.9271 190.82 65.7383 190.351 65.7383C189.629 65.7383 189.143 66.0345 188.896 66.627C188.649 67.2129 188.525 68.056 188.525 69.1562V74H184.707V62.9355H187.588L188.105 64.4004H188.252C188.486 64.0488 188.766 63.7493 189.091 63.502C189.417 63.2546 189.791 63.0658 190.214 62.9355C190.638 62.8053 191.11 62.7402 191.63 62.7402ZM204.044 74.1953C202.924 74.1953 201.951 73.9967 201.124 73.5996C200.297 73.196 199.656 72.5775 199.2 71.7441C198.751 70.9043 198.527 69.8301 198.527 68.5215C198.527 67.1803 198.777 66.0833 199.279 65.2305C199.786 64.3776 200.48 63.7493 201.359 63.3457C202.238 62.9421 203.234 62.7402 204.347 62.7402C205.024 62.7402 205.665 62.8151 206.271 62.9648C206.883 63.1146 207.449 63.3197 207.97 63.5801L206.847 66.4023C206.391 66.2005 205.965 66.041 205.568 65.9238C205.177 65.8001 204.77 65.7383 204.347 65.7383C203.963 65.7383 203.624 65.8392 203.331 66.041C203.038 66.2428 202.81 66.5488 202.648 66.959C202.485 67.3626 202.404 67.877 202.404 68.502C202.404 69.14 202.485 69.6543 202.648 70.0449C202.817 70.4355 203.048 70.7188 203.341 70.8945C203.64 71.0703 203.982 71.1582 204.366 71.1582C204.92 71.1582 205.47 71.0736 206.017 70.9043C206.57 70.7285 207.094 70.4876 207.589 70.1816V73.2188C207.133 73.5182 206.619 73.7559 206.046 73.9316C205.473 74.1074 204.806 74.1953 204.044 74.1953ZM214.524 62.9355V74H210.706V62.9355H214.524ZM212.63 58.4824C213.177 58.4824 213.652 58.5964 214.055 58.8242C214.466 59.0521 214.671 59.5046 214.671 60.1816C214.671 60.8392 214.466 61.2852 214.055 61.5195C213.652 61.7474 213.177 61.8613 212.63 61.8613C212.07 61.8613 211.591 61.7474 211.194 61.5195C210.804 61.2852 210.608 60.8392 210.608 60.1816C210.608 59.5046 210.804 59.0521 211.194 58.8242C211.591 58.5964 212.07 58.4824 212.63 58.4824ZM223.491 62.7402C224.89 62.7402 225.984 63.0885 226.772 63.7852C227.56 64.4753 227.954 65.4616 227.954 66.7441V74H225.307L224.575 72.5352H224.496C224.184 72.9258 223.862 73.2448 223.53 73.4922C223.204 73.7331 222.83 73.9089 222.407 74.0195C221.983 74.1367 221.466 74.1953 220.854 74.1953C220.216 74.1953 219.643 74.0651 219.135 73.8047C218.627 73.5443 218.227 73.1504 217.934 72.623C217.641 72.0957 217.495 71.4284 217.495 70.6211C217.495 69.4362 217.905 68.5573 218.725 67.9844C219.545 67.4115 220.733 67.0892 222.289 67.0176L224.135 66.959V66.8027C224.135 66.3079 224.011 65.9564 223.764 65.748C223.523 65.5397 223.198 65.4355 222.787 65.4355C222.351 65.4355 221.863 65.5137 221.323 65.6699C220.789 65.8197 220.252 66.015 219.711 66.2559L218.608 63.7363C219.246 63.4108 219.968 63.1634 220.776 62.9941C221.583 62.8249 222.488 62.7402 223.491 62.7402ZM224.155 69.0586L223.276 69.0977C222.573 69.1237 222.078 69.2474 221.791 69.4688C221.511 69.6836 221.371 69.9928 221.371 70.3965C221.371 70.7741 221.472 71.054 221.674 71.2363C221.876 71.4121 222.143 71.5 222.475 71.5C222.937 71.5 223.331 71.3535 223.657 71.0605C223.989 70.7676 224.155 70.3867 224.155 69.918V69.0586ZM235.27 74H231.451V58.8047H235.27V74ZM250.868 65.6406H257.03V73.3359C256.295 73.5898 255.452 73.7982 254.501 73.9609C253.551 74.1172 252.555 74.1953 251.513 74.1953C250.139 74.1953 248.935 73.9284 247.9 73.3945C246.864 72.8607 246.057 72.0501 245.478 70.9629C244.898 69.8691 244.609 68.4889 244.609 66.8223C244.609 65.3249 244.895 64.0326 245.468 62.9453C246.041 61.8516 246.884 61.0085 247.997 60.416C249.117 59.8171 250.488 59.5176 252.109 59.5176C253.001 59.5176 253.847 59.6022 254.648 59.7715C255.448 59.9408 256.145 60.1556 256.738 60.416L255.517 63.4434C255.002 63.1895 254.469 63.0007 253.915 62.877C253.362 62.7467 252.766 62.6816 252.128 62.6816C251.275 62.6816 250.588 62.8737 250.068 63.2578C249.553 63.6419 249.179 64.1562 248.945 64.8008C248.71 65.4388 248.593 66.1452 248.593 66.9199C248.593 67.8053 248.717 68.554 248.964 69.166C249.218 69.7715 249.586 70.2337 250.068 70.5527C250.556 70.8652 251.145 71.0215 251.835 71.0215C252.063 71.0215 252.34 71.0052 252.665 70.9727C252.997 70.9401 253.248 70.901 253.417 70.8555V68.6191H250.868V65.6406ZM265.596 62.7402C266.671 62.7402 267.598 62.929 268.38 63.3066C269.161 63.6777 269.763 64.2376 270.186 64.9863C270.61 65.735 270.821 66.6725 270.821 67.7988V69.498H263.995C264.027 70.0775 264.242 70.5527 264.639 70.9238C265.043 71.2949 265.636 71.4805 266.417 71.4805C267.107 71.4805 267.738 71.4121 268.311 71.2754C268.891 71.1387 269.486 70.9271 270.098 70.6406V73.3848C269.565 73.6647 268.982 73.8698 268.35 74C267.719 74.1302 266.921 74.1953 265.958 74.1953C264.845 74.1953 263.848 73.9967 262.97 73.5996C262.091 73.2025 261.397 72.5872 260.889 71.7539C260.388 70.9206 260.137 69.8496 260.137 68.541C260.137 67.2129 260.365 66.1224 260.821 65.2695C261.277 64.4102 261.915 63.7754 262.735 63.3652C263.555 62.9486 264.509 62.7402 265.596 62.7402ZM265.733 65.3379C265.284 65.3379 264.906 65.4811 264.6 65.7676C264.301 66.0475 264.125 66.4902 264.073 67.0957H267.354C267.348 66.7702 267.283 66.474 267.159 66.207C267.035 65.9401 266.853 65.7285 266.612 65.5723C266.378 65.416 266.085 65.3379 265.733 65.3379ZM280.559 62.7402C280.767 62.7402 280.985 62.7565 281.213 62.7891C281.441 62.8151 281.61 62.8379 281.721 62.8574L281.379 66.4609C281.256 66.4284 281.096 66.4023 280.901 66.3828C280.705 66.3568 280.432 66.3438 280.08 66.3438C279.84 66.3438 279.582 66.3665 279.309 66.4121C279.036 66.4577 278.775 66.5553 278.528 66.7051C278.287 66.8483 278.088 67.0697 277.932 67.3691C277.776 67.6621 277.698 68.0592 277.698 68.5605V74H273.879V62.9355H276.721L277.317 64.7031H277.502C277.704 64.3385 277.961 64.0098 278.274 63.7168C278.593 63.4173 278.948 63.1797 279.338 63.0039C279.735 62.8281 280.142 62.7402 280.559 62.7402ZM288.012 62.9355V74H284.193V62.9355H288.012ZM286.117 58.4824C286.664 58.4824 287.139 58.5964 287.543 58.8242C287.953 59.0521 288.158 59.5046 288.158 60.1816C288.158 60.8392 287.953 61.2852 287.543 61.5195C287.139 61.7474 286.664 61.8613 286.117 61.8613C285.557 61.8613 285.079 61.7474 284.682 61.5195C284.291 61.2852 284.096 60.8392 284.096 60.1816C284.096 59.5046 284.291 59.0521 284.682 58.8242C285.079 58.5964 285.557 58.4824 286.117 58.4824ZM296.978 62.7402C298.378 62.7402 299.472 63.0885 300.259 63.7852C301.047 64.4753 301.441 65.4616 301.441 66.7441V74H298.795L298.062 72.5352H297.984C297.671 72.9258 297.349 73.2448 297.017 73.4922C296.692 73.7331 296.317 73.9089 295.894 74.0195C295.471 74.1367 294.953 74.1953 294.341 74.1953C293.703 74.1953 293.13 74.0651 292.623 73.8047C292.115 73.5443 291.714 73.1504 291.421 72.623C291.129 72.0957 290.982 71.4284 290.982 70.6211C290.982 69.4362 291.392 68.5573 292.212 67.9844C293.033 67.4115 294.221 67.0892 295.777 67.0176L297.623 66.959V66.8027C297.623 66.3079 297.499 65.9564 297.252 65.748C297.011 65.5397 296.685 65.4355 296.275 65.4355C295.839 65.4355 295.351 65.5137 294.81 65.6699C294.276 65.8197 293.739 66.015 293.199 66.2559L292.095 63.7363C292.733 63.4108 293.456 63.1634 294.263 62.9941C295.071 62.8249 295.976 62.7402 296.978 62.7402ZM297.642 69.0586L296.763 69.0977C296.06 69.1237 295.565 69.2474 295.279 69.4688C294.999 69.6836 294.859 69.9928 294.859 70.3965C294.859 70.7741 294.96 71.054 295.162 71.2363C295.364 71.4121 295.63 71.5 295.962 71.5C296.425 71.5 296.819 71.3535 297.144 71.0605C297.476 70.7676 297.642 70.3867 297.642 69.918V69.0586ZM301.255 58.6777V58.8828C301.021 59.0716 300.722 59.3027 300.357 59.5762C299.992 59.8431 299.605 60.123 299.195 60.416C298.791 60.7025 298.397 60.9759 298.013 61.2363C297.636 61.4967 297.31 61.7116 297.037 61.8809H294.498V61.5977C294.726 61.3503 294.999 61.0573 295.318 60.7188C295.637 60.3737 295.956 60.0221 296.275 59.6641C296.594 59.306 296.861 58.9772 297.076 58.6777H301.255ZM310.359 71.1777C310.704 71.1777 311.019 71.1419 311.306 71.0703C311.592 70.9987 311.892 70.9076 312.204 70.7969V73.5801C311.788 73.7624 311.345 73.9089 310.876 74.0195C310.414 74.1367 309.821 74.1953 309.099 74.1953C308.383 74.1953 307.751 74.0846 307.204 73.8633C306.657 73.6354 306.231 73.2448 305.925 72.6914C305.626 72.1315 305.476 71.3535 305.476 70.3574V65.7969H304.138V64.2441L305.837 63.043L306.823 60.7188H309.323V62.9355H312.038V65.7969H309.323V70.1035C309.323 70.4616 309.415 70.7318 309.597 70.9141C309.779 71.0898 310.033 71.1777 310.359 71.1777ZM321.718 62.7402C321.926 62.7402 322.144 62.7565 322.372 62.7891C322.6 62.8151 322.769 62.8379 322.88 62.8574L322.538 66.4609C322.414 66.4284 322.255 66.4023 322.059 66.3828C321.864 66.3568 321.591 66.3438 321.239 66.3438C320.998 66.3438 320.741 66.3665 320.468 66.4121C320.194 66.4577 319.934 66.5553 319.686 66.7051C319.445 66.8483 319.247 67.0697 319.091 67.3691C318.934 67.6621 318.856 68.0592 318.856 68.5605V74H315.038V62.9355H317.88L318.475 64.7031H318.661C318.863 64.3385 319.12 64.0098 319.432 63.7168C319.751 63.4173 320.106 63.1797 320.497 63.0039C320.894 62.8281 321.301 62.7402 321.718 62.7402ZM329.17 62.9355V74H325.352V62.9355H329.17ZM327.276 58.4824C327.823 58.4824 328.298 58.5964 328.702 58.8242C329.112 59.0521 329.317 59.5046 329.317 60.1816C329.317 60.8392 329.112 61.2852 328.702 61.5195C328.298 61.7474 327.823 61.8613 327.276 61.8613C326.716 61.8613 326.237 61.7474 325.84 61.5195C325.45 61.2852 325.254 60.8392 325.254 60.1816C325.254 59.5046 325.45 59.0521 325.84 58.8242C326.237 58.5964 326.716 58.4824 327.276 58.4824ZM337.775 74.1953C336.656 74.1953 335.682 73.9967 334.855 73.5996C334.029 73.196 333.387 72.5775 332.932 71.7441C332.482 70.9043 332.258 69.8301 332.258 68.5215C332.258 67.1803 332.508 66.0833 333.01 65.2305C333.518 64.3776 334.211 63.7493 335.09 63.3457C335.969 62.9421 336.965 62.7402 338.078 62.7402C338.755 62.7402 339.396 62.8151 340.002 62.9648C340.614 63.1146 341.18 63.3197 341.701 63.5801L340.578 66.4023C340.122 66.2005 339.696 66.041 339.299 65.9238C338.908 65.8001 338.501 65.7383 338.078 65.7383C337.694 65.7383 337.355 65.8392 337.062 66.041C336.77 66.2428 336.542 66.5488 336.379 66.959C336.216 67.3626 336.135 67.877 336.135 68.502C336.135 69.14 336.216 69.6543 336.379 70.0449C336.548 70.4355 336.779 70.7188 337.072 70.8945C337.372 71.0703 337.714 71.1582 338.098 71.1582C338.651 71.1582 339.201 71.0736 339.748 70.9043C340.301 70.7285 340.826 70.4876 341.32 70.1816V73.2188C340.865 73.5182 340.35 73.7559 339.777 73.9316C339.204 74.1074 338.537 74.1953 337.775 74.1953ZM354.984 68.4434C354.984 69.3678 354.857 70.1882 354.603 70.9043C354.349 71.6204 353.981 72.2227 353.5 72.7109C353.018 73.1992 352.435 73.5703 351.752 73.8242C351.068 74.0716 350.296 74.1953 349.437 74.1953C348.636 74.1953 347.901 74.0716 347.23 73.8242C346.566 73.5703 345.987 73.1992 345.492 72.7109C344.997 72.2227 344.613 71.6204 344.339 70.9043C344.073 70.1882 343.939 69.3678 343.939 68.4434C343.939 67.2194 344.16 66.1842 344.603 65.3379C345.052 64.4915 345.69 63.847 346.517 63.4043C347.351 62.9616 348.343 62.7402 349.496 62.7402C350.557 62.7402 351.501 62.9616 352.328 63.4043C353.155 63.847 353.802 64.4915 354.271 65.3379C354.746 66.1842 354.984 67.2194 354.984 68.4434ZM347.816 68.4434C347.816 69.0749 347.871 69.6087 347.982 70.0449C348.093 70.4746 348.268 70.8034 348.509 71.0312C348.757 71.2526 349.079 71.3633 349.476 71.3633C349.873 71.3633 350.189 71.2526 350.423 71.0312C350.658 70.8034 350.827 70.4746 350.931 70.0449C351.042 69.6087 351.097 69.0749 351.097 68.4434C351.097 67.8118 351.042 67.2845 350.931 66.8613C350.827 66.4382 350.655 66.1191 350.414 65.9043C350.179 65.6895 349.86 65.582 349.457 65.582C348.877 65.582 348.457 65.8229 348.197 66.3047C347.943 66.7865 347.816 67.4993 347.816 68.4434Z" fill="#22668C"/>
</svg>
