<svg width="360" height="95" viewBox="0 0 360 95" fill="none" xmlns="http://www.w3.org/2000/svg">
<path d="M140.64 14.78V42.5H136.04V29.66L126.8 43.14L117.56 29.66V42.5H112.92V14.78L126.8 34.98L140.64 14.78ZM157.662 14.82C159.582 14.82 161.382 15.18 163.062 15.9C164.742 16.62 166.209 17.6067 167.462 18.86C168.715 20.1133 169.702 21.58 170.422 23.26C171.142 24.94 171.502 26.74 171.502 28.66C171.502 30.58 171.142 32.38 170.422 34.06C169.702 35.74 168.715 37.2067 167.462 38.46C166.209 39.7133 164.742 40.7 163.062 41.42C161.382 42.14 159.582 42.5 157.662 42.5C155.742 42.5 153.942 42.14 152.262 41.42C150.582 40.7 149.102 39.7133 147.822 38.46C146.569 37.2067 145.582 35.74 144.862 34.06C144.142 32.38 143.782 30.58 143.782 28.66C143.782 26.74 144.142 24.94 144.862 23.26C145.582 21.58 146.569 20.1133 147.822 18.86C149.102 17.6067 150.582 16.62 152.262 15.9C153.942 15.18 155.742 14.82 157.662 14.82ZM166.862 28.66C166.862 27.38 166.622 26.18 166.142 25.06C165.662 23.94 164.995 22.9667 164.142 22.14C163.315 21.2867 162.342 20.62 161.222 20.14C160.129 19.66 158.942 19.42 157.662 19.42C156.382 19.42 155.182 19.66 154.062 20.14C152.942 20.62 151.955 21.2867 151.102 22.14C150.275 22.9667 149.622 23.94 149.142 25.06C148.662 26.18 148.422 27.38 148.422 28.66C148.422 29.94 148.662 31.14 149.142 32.26C149.622 33.38 150.275 34.3667 151.102 35.22C151.955 36.0467 152.942 36.7 154.062 37.18C155.182 37.66 156.382 37.9 157.662 37.9C158.942 37.9 160.129 37.66 161.222 37.18C162.342 36.7 163.315 36.0467 164.142 35.22C164.995 34.3667 165.662 33.38 166.142 32.26C166.622 31.14 166.862 29.94 166.862 28.66ZM188.678 32.9L195.438 42.5H189.798L179.998 28.62H186.198C186.838 28.62 187.438 28.5 187.998 28.26C188.558 28.02 189.038 27.7 189.438 27.3C189.864 26.8733 190.198 26.38 190.438 25.82C190.678 25.26 190.798 24.66 190.798 24.02C190.798 23.38 190.678 22.78 190.438 22.22C190.198 21.66 189.864 21.18 189.438 20.78C189.038 20.3533 188.558 20.02 187.998 19.78C187.438 19.54 186.838 19.42 186.198 19.42H179.278V28.62V33.26V42.5H174.678V14.78H186.198C187.478 14.78 188.678 15.02 189.798 15.5C190.918 15.98 191.891 16.6467 192.718 17.5C193.571 18.3267 194.238 19.3 194.718 20.42C195.198 21.54 195.438 22.74 195.438 24.02C195.438 25.06 195.264 26.06 194.918 27.02C194.598 27.98 194.144 28.8467 193.558 29.62C192.971 30.3933 192.251 31.0733 191.398 31.66C190.571 32.22 189.664 32.6333 188.678 32.9ZM207.38 14.82C209.3 14.82 211.1 15.18 212.78 15.9C214.46 16.62 215.927 17.6067 217.18 18.86C218.434 20.1133 219.42 21.58 220.14 23.26C220.86 24.94 221.22 26.74 221.22 28.66C221.22 30.58 220.86 32.38 220.14 34.06C219.42 35.74 218.434 37.2067 217.18 38.46C215.927 39.7133 214.46 40.7 212.78 41.42C211.1 42.14 209.3 42.5 207.38 42.5H198.74V37.9H207.38C208.66 37.9 209.86 37.66 210.98 37.18C212.1 36.7 213.074 36.0467 213.9 35.22C214.754 34.3667 215.42 33.38 215.9 32.26C216.38 31.14 216.62 29.94 216.62 28.66C216.62 27.38 216.38 26.18 215.9 25.06C215.42 23.94 214.754 22.9667 213.9 22.14C213.074 21.2867 212.1 20.62 210.98 20.14C209.86 19.66 208.66 19.42 207.38 19.42H198.74V14.82H207.38ZM203.34 20.14V37.18H198.74V20.14H203.34ZM238.131 14.82C240.051 14.82 241.851 15.18 243.531 15.9C245.211 16.62 246.677 17.6067 247.931 18.86C249.184 20.1133 250.171 21.58 250.891 23.26C251.611 24.94 251.971 26.74 251.971 28.66C251.971 30.58 251.611 32.38 250.891 34.06C250.171 35.74 249.184 37.2067 247.931 38.46C246.677 39.7133 245.211 40.7 243.531 41.42C241.851 42.14 240.051 42.5 238.131 42.5C236.211 42.5 234.411 42.14 232.731 41.42C231.051 40.7 229.571 39.7133 228.291 38.46C227.037 37.2067 226.051 35.74 225.331 34.06C224.611 32.38 224.251 30.58 224.251 28.66C224.251 26.74 224.611 24.94 225.331 23.26C226.051 21.58 227.037 20.1133 228.291 18.86C229.571 17.6067 231.051 16.62 232.731 15.9C234.411 15.18 236.211 14.82 238.131 14.82ZM247.331 28.66C247.331 27.38 247.091 26.18 246.611 25.06C246.131 23.94 245.464 22.9667 244.611 22.14C243.784 21.2867 242.811 20.62 241.691 20.14C240.597 19.66 239.411 19.42 238.131 19.42C236.851 19.42 235.651 19.66 234.531 20.14C233.411 20.62 232.424 21.2867 231.571 22.14C230.744 22.9667 230.091 23.94 229.611 25.06C229.131 26.18 228.891 27.38 228.891 28.66C228.891 29.94 229.131 31.14 229.611 32.26C230.091 33.38 230.744 34.3667 231.571 35.22C232.424 36.0467 233.411 36.7 234.531 37.18C235.651 37.66 236.851 37.9 238.131 37.9C239.411 37.9 240.597 37.66 241.691 37.18C242.811 36.7 243.784 36.0467 244.611 35.22C245.464 34.3667 246.131 33.38 246.611 32.26C247.091 31.14 247.331 29.94 247.331 28.66ZM282.867 14.78V42.5H278.267V29.66L269.027 43.14L259.787 29.66V42.5H255.147V14.78L269.027 34.98L282.867 14.78ZM299.888 14.82C301.808 14.82 303.608 15.18 305.288 15.9C306.968 16.62 308.435 17.6067 309.688 18.86C310.942 20.1133 311.928 21.58 312.648 23.26C313.368 24.94 313.728 26.74 313.728 28.66C313.728 30.58 313.368 32.38 312.648 34.06C311.928 35.74 310.942 37.2067 309.688 38.46C308.435 39.7133 306.968 40.7 305.288 41.42C303.608 42.14 301.808 42.5 299.888 42.5C297.968 42.5 296.168 42.14 294.488 41.42C292.808 40.7 291.328 39.7133 290.048 38.46C288.795 37.2067 287.808 35.74 287.088 34.06C286.368 32.38 286.008 30.58 286.008 28.66C286.008 26.74 286.368 24.94 287.088 23.26C287.808 21.58 288.795 20.1133 290.048 18.86C291.328 17.6067 292.808 16.62 294.488 15.9C296.168 15.18 297.968 14.82 299.888 14.82ZM309.088 28.66C309.088 27.38 308.848 26.18 308.368 25.06C307.888 23.94 307.222 22.9667 306.368 22.14C305.542 21.2867 304.568 20.62 303.448 20.14C302.355 19.66 301.168 19.42 299.888 19.42C298.608 19.42 297.408 19.66 296.288 20.14C295.168 20.62 294.182 21.2867 293.328 22.14C292.502 22.9667 291.848 23.94 291.368 25.06C290.888 26.18 290.648 27.38 290.648 28.66C290.648 29.94 290.888 31.14 291.368 32.26C291.848 33.38 292.502 34.3667 293.328 35.22C294.182 36.0467 295.168 36.7 296.288 37.18C297.408 37.66 298.608 37.9 299.888 37.9C301.168 37.9 302.355 37.66 303.448 37.18C304.568 36.7 305.542 36.0467 306.368 35.22C307.222 34.3667 307.888 33.38 308.368 32.26C308.848 31.14 309.088 29.94 309.088 28.66ZM325.031 12.26C324.791 12.6333 324.444 13.0867 323.991 13.62C323.537 14.1533 323.031 14.7133 322.471 15.3C321.937 15.86 321.391 16.4067 320.831 16.94C320.297 17.4467 319.791 17.8867 319.311 18.26H316.991V17.78C317.391 17.2733 317.817 16.6733 318.271 15.98C318.751 15.2867 319.217 14.58 319.671 13.86C320.124 13.1133 320.497 12.4467 320.791 11.86H325.031V12.26ZM350.201 18.14L347.801 22.02C346.494 21.1667 345.081 20.5267 343.561 20.1C342.067 19.6467 340.534 19.42 338.961 19.42C338.507 19.42 337.947 19.46 337.281 19.54C336.641 19.62 336.014 19.78 335.401 20.02C334.787 20.2333 334.254 20.5267 333.801 20.9C333.374 21.2733 333.161 21.7533 333.161 22.34C333.161 22.9267 333.387 23.4333 333.841 23.86C334.294 24.2867 334.867 24.6733 335.561 25.02C336.254 25.34 337.001 25.6333 337.801 25.9C338.627 26.14 339.401 26.3667 340.121 26.58C341.001 26.8467 342.014 27.1933 343.161 27.62C344.334 28.0467 345.427 28.5933 346.441 29.26C347.481 29.9267 348.347 30.74 349.041 31.7C349.761 32.6333 350.121 33.7533 350.121 35.06C350.121 36.42 349.774 37.58 349.081 38.54C348.387 39.4733 347.507 40.2333 346.441 40.82C345.374 41.4067 344.214 41.8333 342.961 42.1C341.734 42.3667 340.561 42.5 339.441 42.5C337.574 42.5 335.654 42.2333 333.681 41.7C331.734 41.1667 330.001 40.3133 328.481 39.14L331.281 35.5C331.761 35.9 332.361 36.2467 333.081 36.54C333.801 36.8333 334.547 37.0867 335.321 37.3C336.121 37.4867 336.907 37.6333 337.681 37.74C338.481 37.8467 339.187 37.9 339.801 37.9C340.227 37.9 340.747 37.86 341.361 37.78C341.974 37.7 342.561 37.5533 343.121 37.34C343.681 37.1267 344.161 36.8467 344.561 36.5C344.961 36.1267 345.161 35.66 345.161 35.1C345.161 34.5133 345.001 34.0067 344.681 33.58C344.361 33.1533 343.934 32.78 343.401 32.46C342.867 32.14 342.227 31.86 341.481 31.62C340.734 31.38 339.947 31.14 339.121 30.9C338.054 30.6067 336.907 30.2467 335.681 29.82C334.454 29.3667 333.307 28.8067 332.241 28.14C331.201 27.4467 330.321 26.62 329.601 25.66C328.907 24.7 328.561 23.5533 328.561 22.22C328.561 20.86 328.907 19.7133 329.601 18.78C330.321 17.8467 331.201 17.0867 332.241 16.5C333.307 15.9133 334.467 15.4867 335.721 15.22C336.974 14.9533 338.161 14.82 339.281 14.82C340.187 14.82 341.121 14.8867 342.081 15.02C343.067 15.1533 344.027 15.3533 344.961 15.62C345.921 15.8867 346.841 16.2333 347.721 16.66C348.627 17.0867 349.454 17.58 350.201 18.14Z" fill="#22668C"/>
<path d="M92.4 47.2C92.4 72.1633 72.1633 92.4 47.2 92.4C22.2367 92.4 2 72.1633 2 47.2C2 22.2367 22.2367 2 47.2 2C72.1633 2 92.4 22.2367 92.4 47.2Z" stroke="#22668C" stroke-width="3"/>
<path d="M55.5255 32.4961C54.4631 32.0188 53.3942 31.6654 52.2776 31.4303C52.7406 31.6422 53.206 31.8489 53.666 32.0668C58.0729 34.1542 61.5249 37.1911 63.6261 41.5518C64.5946 43.5619 65.1567 45.6847 65.389 47.8922C65.4345 48.3244 65.4687 48.7554 65.4904 49.1891C65.5057 49.4945 65.3899 49.607 65.0797 49.6023C64.3604 49.5914 63.6408 49.6001 62.9212 49.6001C50.3375 49.5996 37.7537 49.599 25.1699 49.5984C25.058 49.5984 24.9461 49.5979 24.8342 49.597C24.1633 49.592 24.1263 49.5549 24.1812 48.9048C24.6522 43.3231 26.8776 38.508 30.9941 34.575C34.5108 31.215 38.7291 29.125 43.6318 28.416C54.0683 26.907 63.9343 32.1737 68.2247 41.5434C69.3108 43.9153 69.9195 46.4098 70.078 49.0022C70.1136 49.584 70.0816 49.5951 69.4703 49.598C68.9107 49.6006 68.3509 49.5892 67.7915 49.5995C67.4708 49.6054 67.349 49.4844 67.3267 49.1644C67.133 46.3767 66.4137 43.724 65.0578 41.2524C62.8977 37.3148 59.7247 34.4021 55.5255 32.4961Z" fill="#22668C"/>
<path d="M47.3428 67.2949C43.4288 70.1723 39.2793 72.6506 35.2383 75.2369C35.0371 75.1689 34.9956 75.0249 34.9318 74.9046C33.7756 72.7274 32.6307 70.5445 31.46 68.3746C31.2549 67.9945 31.3095 67.8138 31.7084 67.6348C32.097 67.4604 32.453 67.2138 32.8126 66.9832C34.1505 66.1255 34.8512 64.9538 34.8286 63.3585C34.8162 62.4806 34.9457 61.599 35.0396 60.7219C35.206 59.1673 35.0082 57.7226 33.8291 56.5338C33.5302 56.2324 33.2812 55.8879 33.0734 55.5177C32.7109 54.872 32.9337 54.2995 33.6754 54.1166C34.8229 53.8335 35.8314 54.149 36.672 54.9303C37.4919 55.6924 38.0134 56.6599 38.524 57.6273C38.8372 58.2205 39.1526 58.8137 39.4326 59.4218C39.7286 60.0644 40.1913 60.5626 40.7432 60.9986C41.5145 61.6079 42.4059 61.6874 43.3303 61.5035C45.4117 61.0894 47.323 60.2099 49.2684 59.4236C51.5632 58.496 53.5327 57.0547 55.5648 55.7107C56.5205 55.0787 57.5358 54.5622 58.6437 54.2245C59.4707 53.9724 60.3028 53.9053 61.1426 54.146C61.5061 54.2502 61.813 54.4445 61.9838 54.7896C62.2236 55.2741 62.0666 55.7635 61.551 55.9974C61.0313 56.2332 60.482 56.4066 59.9531 56.6244C58.5213 57.2139 57.3145 58.1239 56.1643 59.1207C53.8843 61.0966 51.8895 63.3482 49.6874 65.3989C48.9603 66.076 48.1677 66.6788 47.3428 67.2949Z" fill="#22668C" stroke="#22668C"/>
<path d="M55.9487 50.2898C63.3832 50.2893 70.7698 50.2888 78.1564 50.2885C78.3322 50.2885 78.5082 50.2875 78.6839 50.2933C79.0845 50.3065 79.3766 50.482 79.421 50.8828C79.4633 51.2646 79.2511 51.5345 78.8817 51.6702C78.5015 51.8098 78.0924 51.7797 77.6984 51.8153C76.0448 51.9649 74.3876 52.077 72.7323 52.2101C71.9226 52.2752 71.1588 52.4672 70.5283 53.0088C70.1817 53.3065 69.757 53.3398 69.3141 53.3395C62.3752 53.3354 55.4363 53.3369 48.4974 53.337C40.7112 53.3371 32.9249 53.3335 25.1386 53.3442C24.551 53.345 24.0549 53.2198 23.5899 52.8558C22.7395 52.19 21.6824 52.2119 20.669 52.1255C19.0304 51.9859 17.3895 51.8723 15.7505 51.7378C15.2628 51.6978 14.9051 51.3347 14.9147 50.9312C14.9249 50.5072 15.2512 50.2923 15.8981 50.2922C27.026 50.2911 38.1538 50.2906 49.2816 50.29C51.488 50.2899 53.6944 50.2899 55.9487 50.2898Z" fill="#22668C"/>
<path d="M33.2915 73.5208C33.9855 74.8349 34.6547 76.1224 35.3458 77.3987C35.5155 77.7121 35.4728 77.8775 35.1503 78.0601C33.052 79.2474 30.9619 80.4485 28.8767 81.6573C28.5714 81.8343 28.4163 81.8078 28.2516 81.4862C26.5952 78.2513 24.9308 75.0202 23.2531 71.7956C23.0667 71.4372 23.2409 71.3484 23.5245 71.2251C25.6537 70.2997 27.785 69.3783 29.8986 68.4202C30.3351 68.2222 30.5275 68.2733 30.7407 68.6881C31.5676 70.2974 32.4272 71.8908 33.2915 73.5208ZM32.2615 76.6914C31.8646 76.5107 31.5736 76.6337 31.4291 77.0153C31.3194 77.305 31.4226 77.563 31.7107 77.7204C31.9919 77.874 32.2325 77.7869 32.4238 77.562C32.6859 77.254 32.6295 76.973 32.2615 76.6914Z" fill="#22668C"/>
<path d="M45.5529 27.2895C45.4 26.766 45.1392 26.3549 44.7552 26.0034C44.3564 25.6385 44.3567 25.3252 44.6985 24.9034C45.7577 23.596 48.4518 23.5753 49.5337 24.8662C49.9347 25.3446 49.934 25.6023 49.4863 26.0295C49.0626 26.4338 48.7665 26.8997 48.6876 27.4737C48.6491 27.7542 48.4964 27.8282 48.2333 27.8249C47.5469 27.8162 46.8592 27.7983 46.1743 27.8301C45.7691 27.8489 45.5707 27.7179 45.5529 27.2895Z" fill="#22668C" stroke="#22668C"/>
<path d="M41.9317 9.17976C40.5012 10.7513 40.5371 12.3956 41.6024 14.379C42.2439 15.5734 42.9871 16.7165 43.6841 17.8829C44.3212 18.949 44.2156 20.4187 43.445 21.2335C43.3392 21.3454 43.2385 21.4623 43.0723 21.49C43.0545 21.4465 43.0262 21.4067 43.0353 21.3955C43.7019 20.5766 43.583 19.7283 43.134 18.871C42.4742 17.6112 41.5754 16.4904 40.887 15.2468C40.4848 14.5204 40.1453 13.7719 39.992 12.9538C39.6159 10.9457 40.5492 9.54818 42.2066 8.49198C42.3598 8.3944 42.5011 8.24945 42.7721 8.27634C42.5609 8.65109 42.187 8.84556 41.9317 9.17976Z" fill="#22668C" stroke="#22668C"/>
<path d="M48.2289 16.8665C48.788 17.7568 49.3589 18.604 49.2595 19.6879C49.1914 20.43 48.9358 21.062 48.2837 21.4968C48.1597 21.4162 48.2202 21.3426 48.2629 21.2892C48.7821 20.6392 48.7447 19.9398 48.4584 19.2213C48.1214 18.3757 47.5743 17.6448 47.0783 16.8874C46.4782 15.9713 45.8823 15.0543 45.4711 14.0388C44.5188 11.6869 45.3168 9.5636 47.6062 8.35813C47.6982 8.30968 47.7843 8.21424 47.9166 8.29315C47.9162 8.49806 47.7203 8.55457 47.6041 8.66348C46.6293 9.57714 45.896 10.6045 46.0083 11.9976C46.0827 12.9205 46.3916 13.782 46.8665 14.585C47.3116 15.3374 47.7623 16.0868 48.2289 16.8665Z" fill="#22668C" stroke="#22668C"/>
<path d="M52.7654 8.62218C51.692 9.56813 50.9609 10.6504 51.1032 12.0912C51.2149 13.2218 51.7164 14.2274 52.3148 15.1915C52.8745 16.0936 53.4222 17.0029 53.9603 17.9173C54.5911 18.9893 54.4802 20.4294 53.7186 21.2231C53.6153 21.3307 53.5302 21.4761 53.3427 21.4718C53.3305 21.4399 53.3029 21.3998 53.3124 21.3879C54.0512 20.4729 53.7998 19.56 53.2978 18.6561C52.5934 17.3877 51.674 16.2443 51.0065 14.9536C50.4172 13.8142 49.9827 12.6427 50.263 11.3419C50.5831 9.85645 51.6176 8.93578 52.9321 8.25116C52.9511 8.24126 52.9896 8.26653 53.0231 8.27664C53.0314 8.44423 52.8803 8.50253 52.7654 8.62218Z" fill="#22668C" stroke="#22668C"/>
<path d="M118.221 74.7227C119.516 74.7227 120.594 74.8822 121.453 75.2012C122.312 75.5137 122.957 75.9824 123.387 76.6074C123.823 77.2324 124.041 78.0104 124.041 78.9414C124.041 79.5208 123.943 80.0482 123.748 80.5234C123.553 80.9987 123.273 81.4251 122.908 81.8027C122.55 82.1738 122.12 82.4993 121.619 82.7793L125.779 89H121.404L118.377 83.8047H117.4V89H113.543V74.7227H118.221ZM118.162 77.6426H117.4V80.9043H118.123C118.715 80.9043 119.201 80.7741 119.578 80.5137C119.956 80.2533 120.145 79.7878 120.145 79.1172C120.145 78.6549 119.988 78.2936 119.676 78.0332C119.363 77.7728 118.859 77.6426 118.162 77.6426ZM132.734 77.7402C133.808 77.7402 134.736 77.929 135.517 78.3066C136.298 78.6777 136.901 79.2376 137.324 79.9863C137.747 80.735 137.959 81.6725 137.959 82.7988V84.498H131.132C131.165 85.0775 131.38 85.5527 131.777 85.9238C132.181 86.2949 132.773 86.4805 133.554 86.4805C134.244 86.4805 134.876 86.4121 135.449 86.2754C136.028 86.1387 136.624 85.9271 137.236 85.6406V88.3848C136.702 88.6647 136.119 88.8698 135.488 89C134.856 89.1302 134.059 89.1953 133.095 89.1953C131.982 89.1953 130.986 88.9967 130.107 88.5996C129.228 88.2025 128.535 87.5872 128.027 86.7539C127.526 85.9206 127.275 84.8496 127.275 83.541C127.275 82.2129 127.503 81.1224 127.959 80.2695C128.414 79.4102 129.052 78.7754 129.873 78.3652C130.693 77.9486 131.647 77.7402 132.734 77.7402ZM132.871 80.3379C132.421 80.3379 132.044 80.4811 131.738 80.7676C131.438 81.0475 131.263 81.4902 131.211 82.0957H134.492C134.485 81.7702 134.42 81.474 134.296 81.207C134.173 80.9401 133.99 80.7285 133.75 80.5723C133.515 80.416 133.222 80.3379 132.871 80.3379ZM149.239 85.6016C149.239 86.3047 149.083 86.9264 148.771 87.4668C148.458 88.0072 147.957 88.4303 147.267 88.7363C146.583 89.0423 145.682 89.1953 144.562 89.1953C143.774 89.1953 143.068 89.153 142.443 89.0684C141.824 88.9837 141.196 88.821 140.558 88.5801V85.5234C141.254 85.8424 141.964 86.0736 142.687 86.2168C143.409 86.3535 143.979 86.4219 144.396 86.4219C144.825 86.4219 145.138 86.3763 145.333 86.2852C145.535 86.1875 145.636 86.0443 145.636 85.8555C145.636 85.6927 145.568 85.556 145.431 85.4453C145.301 85.3281 145.063 85.1947 144.718 85.0449C144.379 84.8952 143.901 84.6934 143.282 84.4395C142.67 84.1855 142.159 83.9089 141.749 83.6094C141.346 83.3099 141.043 82.9518 140.841 82.5352C140.639 82.1185 140.538 81.6074 140.538 81.002C140.538 79.9212 140.955 79.1074 141.788 78.5605C142.622 78.0137 143.725 77.7402 145.099 77.7402C145.828 77.7402 146.515 77.8216 147.159 77.9844C147.804 78.1406 148.471 78.3717 149.161 78.6777L148.116 81.1387C147.57 80.8913 147.016 80.6927 146.456 80.543C145.896 80.3932 145.45 80.3184 145.118 80.3184C144.819 80.3184 144.588 80.3574 144.425 80.4355C144.262 80.5137 144.181 80.6276 144.181 80.7773C144.181 80.9141 144.236 81.0345 144.347 81.1387C144.464 81.2428 144.682 81.3633 145.001 81.5C145.32 81.6367 145.786 81.8288 146.398 82.0762C147.042 82.3366 147.573 82.6165 147.989 82.916C148.413 83.209 148.725 83.5671 148.927 83.9902C149.135 84.4134 149.239 84.9505 149.239 85.6016ZM156.106 77.9355V89H152.288V77.9355H156.106ZM154.212 73.4824C154.759 73.4824 155.234 73.5964 155.638 73.8242C156.048 74.0521 156.253 74.5046 156.253 75.1816C156.253 75.8392 156.048 76.2852 155.638 76.5195C155.234 76.7474 154.759 76.8613 154.212 76.8613C153.652 76.8613 153.173 76.7474 152.776 76.5195C152.386 76.2852 152.19 75.8392 152.19 75.1816C152.19 74.5046 152.386 74.0521 152.776 73.8242C153.173 73.5964 153.652 73.4824 154.212 73.4824ZM163.11 89.1953C161.97 89.1953 161.033 88.7103 160.297 87.7402C159.562 86.7702 159.194 85.3509 159.194 83.4824C159.194 81.5944 159.571 80.1654 160.327 79.1953C161.082 78.2253 162.058 77.7402 163.256 77.7402C163.751 77.7402 164.177 77.8118 164.536 77.9551C164.894 78.0983 165.203 78.2936 165.463 78.541C165.73 78.7819 165.961 79.0553 166.157 79.3613H166.235C166.189 79.0814 166.147 78.6973 166.108 78.209C166.069 77.7142 166.049 77.2324 166.049 76.7637V73.8047H169.897V89H167.016L166.196 87.6035H166.049C165.873 87.8965 165.652 88.1634 165.385 88.4043C165.125 88.6452 164.806 88.8372 164.428 88.9805C164.057 89.1237 163.618 89.1953 163.11 89.1953ZM164.672 86.1777C165.284 86.1777 165.714 85.9857 165.961 85.6016C166.215 85.2109 166.352 84.6185 166.371 83.8242V83.5215C166.371 82.6491 166.248 81.9818 166 81.5195C165.76 81.0508 165.304 80.8164 164.633 80.8164C164.177 80.8164 163.8 81.0378 163.5 81.4805C163.201 81.9232 163.051 82.61 163.051 83.541C163.051 84.459 163.201 85.1296 163.5 85.5527C163.806 85.9694 164.197 86.1777 164.672 86.1777ZM178.424 77.7402C179.498 77.7402 180.426 77.929 181.207 78.3066C181.988 78.6777 182.59 79.2376 183.014 79.9863C183.437 80.735 183.648 81.6725 183.648 82.7988V84.498H176.822C176.855 85.0775 177.07 85.5527 177.467 85.9238C177.87 86.2949 178.463 86.4805 179.244 86.4805C179.934 86.4805 180.566 86.4121 181.139 86.2754C181.718 86.1387 182.314 85.9271 182.926 85.6406V88.3848C182.392 88.6647 181.809 88.8698 181.178 89C180.546 89.1302 179.749 89.1953 178.785 89.1953C177.672 89.1953 176.676 88.9967 175.797 88.5996C174.918 88.2025 174.225 87.5872 173.717 86.7539C173.215 85.9206 172.965 84.8496 172.965 83.541C172.965 82.2129 173.193 81.1224 173.648 80.2695C174.104 79.4102 174.742 78.7754 175.562 78.3652C176.383 77.9486 177.337 77.7402 178.424 77.7402ZM178.561 80.3379C178.111 80.3379 177.734 80.4811 177.428 80.7676C177.128 81.0475 176.952 81.4902 176.9 82.0957H180.182C180.175 81.7702 180.11 81.474 179.986 81.207C179.863 80.9401 179.68 80.7285 179.439 80.5723C179.205 80.416 178.912 80.3379 178.561 80.3379ZM193.63 77.7402C194.77 77.7402 195.701 78.0625 196.423 78.707C197.146 79.3516 197.507 80.3835 197.507 81.8027V89H193.689V82.9648C193.689 82.2292 193.582 81.6758 193.367 81.3047C193.158 80.9271 192.82 80.7383 192.351 80.7383C191.629 80.7383 191.143 81.0345 190.896 81.627C190.649 82.2129 190.525 83.056 190.525 84.1562V89H186.707V77.9355H189.588L190.105 79.4004H190.252C190.486 79.0488 190.766 78.7493 191.091 78.502C191.417 78.2546 191.791 78.0658 192.214 77.9355C192.638 77.8053 193.11 77.7402 193.63 77.7402ZM206.044 89.1953C204.924 89.1953 203.951 88.9967 203.124 88.5996C202.297 88.196 201.656 87.5775 201.2 86.7441C200.751 85.9043 200.527 84.8301 200.527 83.5215C200.527 82.1803 200.777 81.0833 201.279 80.2305C201.786 79.3776 202.48 78.7493 203.359 78.3457C204.238 77.9421 205.234 77.7402 206.347 77.7402C207.024 77.7402 207.665 77.8151 208.271 77.9648C208.883 78.1146 209.449 78.3197 209.97 78.5801L208.847 81.4023C208.391 81.2005 207.965 81.041 207.568 80.9238C207.177 80.8001 206.77 80.7383 206.347 80.7383C205.963 80.7383 205.624 80.8392 205.331 81.041C205.038 81.2428 204.81 81.5488 204.648 81.959C204.485 82.3626 204.404 82.877 204.404 83.502C204.404 84.14 204.485 84.6543 204.648 85.0449C204.817 85.4355 205.048 85.7188 205.341 85.8945C205.64 86.0703 205.982 86.1582 206.366 86.1582C206.92 86.1582 207.47 86.0736 208.017 85.9043C208.57 85.7285 209.094 85.4876 209.589 85.1816V88.2188C209.133 88.5182 208.619 88.7559 208.046 88.9316C207.473 89.1074 206.806 89.1953 206.044 89.1953ZM216.524 77.9355V89H212.706V77.9355H216.524ZM214.63 73.4824C215.177 73.4824 215.652 73.5964 216.055 73.8242C216.466 74.0521 216.671 74.5046 216.671 75.1816C216.671 75.8392 216.466 76.2852 216.055 76.5195C215.652 76.7474 215.177 76.8613 214.63 76.8613C214.07 76.8613 213.591 76.7474 213.194 76.5195C212.804 76.2852 212.608 75.8392 212.608 75.1816C212.608 74.5046 212.804 74.0521 213.194 73.8242C213.591 73.5964 214.07 73.4824 214.63 73.4824ZM225.491 77.7402C226.89 77.7402 227.984 78.0885 228.772 78.7852C229.56 79.4753 229.954 80.4616 229.954 81.7441V89H227.307L226.575 87.5352H226.496C226.184 87.9258 225.862 88.2448 225.53 88.4922C225.204 88.7331 224.83 88.9089 224.407 89.0195C223.983 89.1367 223.466 89.1953 222.854 89.1953C222.216 89.1953 221.643 89.0651 221.135 88.8047C220.627 88.5443 220.227 88.1504 219.934 87.623C219.641 87.0957 219.495 86.4284 219.495 85.6211C219.495 84.4362 219.905 83.5573 220.725 82.9844C221.545 82.4115 222.733 82.0892 224.289 82.0176L226.135 81.959V81.8027C226.135 81.3079 226.011 80.9564 225.764 80.748C225.523 80.5397 225.198 80.4355 224.787 80.4355C224.351 80.4355 223.863 80.5137 223.323 80.6699C222.789 80.8197 222.252 81.015 221.711 81.2559L220.608 78.7363C221.246 78.4108 221.968 78.1634 222.776 77.9941C223.583 77.8249 224.488 77.7402 225.491 77.7402ZM226.155 84.0586L225.276 84.0977C224.573 84.1237 224.078 84.2474 223.791 84.4688C223.511 84.6836 223.371 84.9928 223.371 85.3965C223.371 85.7741 223.472 86.054 223.674 86.2363C223.876 86.4121 224.143 86.5 224.475 86.5C224.937 86.5 225.331 86.3535 225.657 86.0605C225.989 85.7676 226.155 85.3867 226.155 84.918V84.0586ZM237.27 89H233.451V73.8047H237.27V89ZM252.868 80.6406H259.03V88.3359C258.295 88.5898 257.452 88.7982 256.501 88.9609C255.551 89.1172 254.555 89.1953 253.513 89.1953C252.139 89.1953 250.935 88.9284 249.9 88.3945C248.864 87.8607 248.057 87.0501 247.478 85.9629C246.898 84.8691 246.609 83.4889 246.609 81.8223C246.609 80.3249 246.895 79.0326 247.468 77.9453C248.041 76.8516 248.884 76.0085 249.997 75.416C251.117 74.8171 252.488 74.5176 254.109 74.5176C255.001 74.5176 255.847 74.6022 256.648 74.7715C257.448 74.9408 258.145 75.1556 258.738 75.416L257.517 78.4434C257.002 78.1895 256.469 78.0007 255.915 77.877C255.362 77.7467 254.766 77.6816 254.128 77.6816C253.275 77.6816 252.588 77.8737 252.068 78.2578C251.553 78.6419 251.179 79.1562 250.945 79.8008C250.71 80.4388 250.593 81.1452 250.593 81.9199C250.593 82.8053 250.717 83.554 250.964 84.166C251.218 84.7715 251.586 85.2337 252.068 85.5527C252.556 85.8652 253.145 86.0215 253.835 86.0215C254.063 86.0215 254.34 86.0052 254.665 85.9727C254.997 85.9401 255.248 85.901 255.417 85.8555V83.6191H252.868V80.6406ZM267.596 77.7402C268.671 77.7402 269.598 77.929 270.38 78.3066C271.161 78.6777 271.763 79.2376 272.186 79.9863C272.61 80.735 272.821 81.6725 272.821 82.7988V84.498H265.995C266.027 85.0775 266.242 85.5527 266.639 85.9238C267.043 86.2949 267.636 86.4805 268.417 86.4805C269.107 86.4805 269.738 86.4121 270.311 86.2754C270.891 86.1387 271.486 85.9271 272.098 85.6406V88.3848C271.565 88.6647 270.982 88.8698 270.35 89C269.719 89.1302 268.921 89.1953 267.958 89.1953C266.845 89.1953 265.848 88.9967 264.97 88.5996C264.091 88.2025 263.397 87.5872 262.889 86.7539C262.388 85.9206 262.137 84.8496 262.137 83.541C262.137 82.2129 262.365 81.1224 262.821 80.2695C263.277 79.4102 263.915 78.7754 264.735 78.3652C265.555 77.9486 266.509 77.7402 267.596 77.7402ZM267.733 80.3379C267.284 80.3379 266.906 80.4811 266.6 80.7676C266.301 81.0475 266.125 81.4902 266.073 82.0957H269.354C269.348 81.7702 269.283 81.474 269.159 81.207C269.035 80.9401 268.853 80.7285 268.612 80.5723C268.378 80.416 268.085 80.3379 267.733 80.3379ZM282.559 77.7402C282.767 77.7402 282.985 77.7565 283.213 77.7891C283.441 77.8151 283.61 77.8379 283.721 77.8574L283.379 81.4609C283.256 81.4284 283.096 81.4023 282.901 81.3828C282.705 81.3568 282.432 81.3438 282.08 81.3438C281.84 81.3438 281.582 81.3665 281.309 81.4121C281.036 81.4577 280.775 81.5553 280.528 81.7051C280.287 81.8483 280.088 82.0697 279.932 82.3691C279.776 82.6621 279.698 83.0592 279.698 83.5605V89H275.879V77.9355H278.721L279.317 79.7031H279.502C279.704 79.3385 279.961 79.0098 280.274 78.7168C280.593 78.4173 280.948 78.1797 281.338 78.0039C281.735 77.8281 282.142 77.7402 282.559 77.7402ZM290.012 77.9355V89H286.193V77.9355H290.012ZM288.117 73.4824C288.664 73.4824 289.139 73.5964 289.543 73.8242C289.953 74.0521 290.158 74.5046 290.158 75.1816C290.158 75.8392 289.953 76.2852 289.543 76.5195C289.139 76.7474 288.664 76.8613 288.117 76.8613C287.557 76.8613 287.079 76.7474 286.682 76.5195C286.291 76.2852 286.096 75.8392 286.096 75.1816C286.096 74.5046 286.291 74.0521 286.682 73.8242C287.079 73.5964 287.557 73.4824 288.117 73.4824ZM298.978 77.7402C300.378 77.7402 301.472 78.0885 302.259 78.7852C303.047 79.4753 303.441 80.4616 303.441 81.7441V89H300.795L300.062 87.5352H299.984C299.671 87.9258 299.349 88.2448 299.017 88.4922C298.692 88.7331 298.317 88.9089 297.894 89.0195C297.471 89.1367 296.953 89.1953 296.341 89.1953C295.703 89.1953 295.13 89.0651 294.623 88.8047C294.115 88.5443 293.714 88.1504 293.421 87.623C293.129 87.0957 292.982 86.4284 292.982 85.6211C292.982 84.4362 293.392 83.5573 294.212 82.9844C295.033 82.4115 296.221 82.0892 297.777 82.0176L299.623 81.959V81.8027C299.623 81.3079 299.499 80.9564 299.252 80.748C299.011 80.5397 298.685 80.4355 298.275 80.4355C297.839 80.4355 297.351 80.5137 296.81 80.6699C296.276 80.8197 295.739 81.015 295.199 81.2559L294.095 78.7363C294.733 78.4108 295.456 78.1634 296.263 77.9941C297.071 77.8249 297.976 77.7402 298.978 77.7402ZM299.642 84.0586L298.763 84.0977C298.06 84.1237 297.565 84.2474 297.279 84.4688C296.999 84.6836 296.859 84.9928 296.859 85.3965C296.859 85.7741 296.96 86.054 297.162 86.2363C297.364 86.4121 297.63 86.5 297.962 86.5C298.425 86.5 298.819 86.3535 299.144 86.0605C299.476 85.7676 299.642 85.3867 299.642 84.918V84.0586ZM303.255 73.6777V73.8828C303.021 74.0716 302.722 74.3027 302.357 74.5762C301.992 74.8431 301.605 75.123 301.195 75.416C300.791 75.7025 300.397 75.9759 300.013 76.2363C299.636 76.4967 299.31 76.7116 299.037 76.8809H296.498V76.5977C296.726 76.3503 296.999 76.0573 297.318 75.7188C297.637 75.3737 297.956 75.0221 298.275 74.6641C298.594 74.306 298.861 73.9772 299.076 73.6777H303.255ZM312.359 86.1777C312.704 86.1777 313.019 86.1419 313.306 86.0703C313.592 85.9987 313.892 85.9076 314.204 85.7969V88.5801C313.788 88.7624 313.345 88.9089 312.876 89.0195C312.414 89.1367 311.821 89.1953 311.099 89.1953C310.383 89.1953 309.751 89.0846 309.204 88.8633C308.657 88.6354 308.231 88.2448 307.925 87.6914C307.626 87.1315 307.476 86.3535 307.476 85.3574V80.7969H306.138V79.2441L307.837 78.043L308.823 75.7188H311.323V77.9355H314.038V80.7969H311.323V85.1035C311.323 85.4616 311.415 85.7318 311.597 85.9141C311.779 86.0898 312.033 86.1777 312.359 86.1777ZM323.718 77.7402C323.926 77.7402 324.144 77.7565 324.372 77.7891C324.6 77.8151 324.769 77.8379 324.88 77.8574L324.538 81.4609C324.414 81.4284 324.255 81.4023 324.059 81.3828C323.864 81.3568 323.591 81.3438 323.239 81.3438C322.998 81.3438 322.741 81.3665 322.468 81.4121C322.194 81.4577 321.934 81.5553 321.686 81.7051C321.445 81.8483 321.247 82.0697 321.091 82.3691C320.934 82.6621 320.856 83.0592 320.856 83.5605V89H317.038V77.9355H319.88L320.475 79.7031H320.661C320.863 79.3385 321.12 79.0098 321.432 78.7168C321.751 78.4173 322.106 78.1797 322.497 78.0039C322.894 77.8281 323.301 77.7402 323.718 77.7402ZM331.17 77.9355V89H327.352V77.9355H331.17ZM329.276 73.4824C329.823 73.4824 330.298 73.5964 330.702 73.8242C331.112 74.0521 331.317 74.5046 331.317 75.1816C331.317 75.8392 331.112 76.2852 330.702 76.5195C330.298 76.7474 329.823 76.8613 329.276 76.8613C328.716 76.8613 328.237 76.7474 327.84 76.5195C327.45 76.2852 327.254 75.8392 327.254 75.1816C327.254 74.5046 327.45 74.0521 327.84 73.8242C328.237 73.5964 328.716 73.4824 329.276 73.4824ZM339.775 89.1953C338.656 89.1953 337.682 88.9967 336.855 88.5996C336.029 88.196 335.387 87.5775 334.932 86.7441C334.482 85.9043 334.258 84.8301 334.258 83.5215C334.258 82.1803 334.508 81.0833 335.01 80.2305C335.518 79.3776 336.211 78.7493 337.09 78.3457C337.969 77.9421 338.965 77.7402 340.078 77.7402C340.755 77.7402 341.396 77.8151 342.002 77.9648C342.614 78.1146 343.18 78.3197 343.701 78.5801L342.578 81.4023C342.122 81.2005 341.696 81.041 341.299 80.9238C340.908 80.8001 340.501 80.7383 340.078 80.7383C339.694 80.7383 339.355 80.8392 339.062 81.041C338.77 81.2428 338.542 81.5488 338.379 81.959C338.216 82.3626 338.135 82.877 338.135 83.502C338.135 84.14 338.216 84.6543 338.379 85.0449C338.548 85.4355 338.779 85.7188 339.072 85.8945C339.372 86.0703 339.714 86.1582 340.098 86.1582C340.651 86.1582 341.201 86.0736 341.748 85.9043C342.301 85.7285 342.826 85.4876 343.32 85.1816V88.2188C342.865 88.5182 342.35 88.7559 341.777 88.9316C341.204 89.1074 340.537 89.1953 339.775 89.1953ZM356.984 83.4434C356.984 84.3678 356.857 85.1882 356.603 85.9043C356.349 86.6204 355.981 87.2227 355.5 87.7109C355.018 88.1992 354.435 88.5703 353.752 88.8242C353.068 89.0716 352.296 89.1953 351.437 89.1953C350.636 89.1953 349.901 89.0716 349.23 88.8242C348.566 88.5703 347.987 88.1992 347.492 87.7109C346.997 87.2227 346.613 86.6204 346.339 85.9043C346.073 85.1882 345.939 84.3678 345.939 83.4434C345.939 82.2194 346.16 81.1842 346.603 80.3379C347.052 79.4915 347.69 78.847 348.517 78.4043C349.351 77.9616 350.343 77.7402 351.496 77.7402C352.557 77.7402 353.501 77.9616 354.328 78.4043C355.155 78.847 355.802 79.4915 356.271 80.3379C356.746 81.1842 356.984 82.2194 356.984 83.4434ZM349.816 83.4434C349.816 84.0749 349.871 84.6087 349.982 85.0449C350.093 85.4746 350.268 85.8034 350.509 86.0312C350.757 86.2526 351.079 86.3633 351.476 86.3633C351.873 86.3633 352.189 86.2526 352.423 86.0312C352.658 85.8034 352.827 85.4746 352.931 85.0449C353.042 84.6087 353.097 84.0749 353.097 83.4434C353.097 82.8118 353.042 82.2845 352.931 81.8613C352.827 81.4382 352.655 81.1191 352.414 80.9043C352.179 80.6895 351.86 80.582 351.457 80.582C350.877 80.582 350.457 80.8229 350.197 81.3047C349.943 81.7865 349.816 82.4993 349.816 83.4434Z" fill="#22668C"/>
</svg>
