<svg width="58" height="59" viewBox="0 0 58 59" fill="none" xmlns="http://www.w3.org/2000/svg">
<g clip-path="url(#clip0_86_18)">
<g filter="url(#filter0_d_86_18)">
<path d="M1.24411 29.1137C1.23825 34.0448 2.52541 38.8903 4.97585 43.1617L1.00989 57.7218L15.8294 53.8149C19.9281 56.0585 24.5205 57.2341 29.1873 57.2344H29.1996C44.6054 57.2344 57.1468 44.6292 57.1532 29.136C57.1561 21.6282 54.2508 14.569 48.9727 9.2575C43.6956 3.94651 36.6769 1.02031 29.1986 1.01733C13.7904 1.01733 1.25052 13.621 1.24411 29.1137Z" fill="url(#paint0_linear_86_18)"/>
<path d="M1.74411 29.1139L1.74411 29.1143C1.73835 33.958 3.00272 38.7175 5.40955 42.9129L5.51281 43.0929L5.45827 43.2931L1.71994 57.0175L15.7019 53.3314L15.8946 53.2806L16.0694 53.3763C20.0947 55.5797 24.6046 56.7341 29.1873 56.7344H29.1996C44.3267 56.7344 56.6469 44.3556 56.6532 29.1358C56.6561 21.7597 53.8027 14.8274 48.6181 9.60994L48.9701 9.26016L48.618 9.60992C43.4346 4.3932 36.5435 1.52031 29.1986 1.51733L1.74411 29.1139ZM1.74411 29.1139C1.7504 13.8948 14.0689 1.51744 29.1984 1.51733L1.74411 29.1139Z" stroke="black"/>
</g>
<path d="M1.24639 29.1053L1.24639 29.106C1.24054 34.039 2.5282 38.886 4.97916 43.1584L5.18568 43.5184L5.0766 43.9189L1.42344 57.3296L15.0989 53.7241L15.4844 53.6224L15.8341 53.8139C19.9329 56.0581 24.5251 57.234 29.1915 57.2345C29.1916 57.2345 29.1916 57.2345 29.1916 57.2345H29.2039C44.6049 57.2345 57.1536 44.6285 57.1609 29.1278L1.24639 29.1053ZM1.24639 29.1053C1.25258 13.6038 13.7995 1.00021 29.2035 1L1.24639 29.1053ZM8.30802 43.0554L7.96763 42.5124L7.96693 42.5113C5.45673 38.4954 4.12854 33.8477 4.13543 29.1054C4.13543 29.1052 4.13543 29.1051 4.13543 29.1049L5.13543 29.1063L8.30802 43.0554ZM8.30802 43.0554L5.99109 51.5605L5.53576 53.2319L7.21088 52.7903L15.9134 50.4958L16.4317 50.805L16.4325 50.8055C20.2961 53.1054 24.7039 54.3189 29.1945 54.3187C29.1945 54.3187 29.1945 54.3187 29.1946 54.3187L8.30802 43.0554ZM48.9778 9.24061C43.6975 3.92808 36.6829 1.00297 29.2039 1L48.9778 9.24061ZM48.9778 9.24061C54.2573 14.5545 57.1632 21.6137 57.1609 29.1277L48.9778 9.24061Z" fill="url(#paint1_linear_86_18)" stroke="white" stroke-width="2"/>
<path d="M21.9659 16.9369C21.4235 15.7257 20.8535 15.7014 20.3382 15.6801C19.9161 15.6617 19.4334 15.6632 18.9516 15.6632C18.4684 15.6632 17.6849 15.8457 17.0222 16.5735C16.3589 17.3014 14.4896 19.0609 14.4896 22.6406C14.4896 26.2203 17.0823 29.6785 17.4438 30.1643C17.8057 30.6492 22.4492 38.2295 29.8032 41.1453C35.9156 43.5687 37.1592 43.0868 38.4856 42.9654C39.812 42.8444 42.7666 41.2063 43.3692 39.5072C43.9723 37.8086 43.9723 36.3524 43.7913 36.0485C43.6108 35.7455 43.1281 35.5631 42.4047 35.1997C41.6808 34.8358 38.1237 33.0757 37.4609 32.8327C36.7972 32.5903 36.315 32.4693 35.8322 33.1976C35.35 33.925 33.9644 35.5631 33.5423 36.0485C33.1202 36.5344 32.6976 36.5953 31.9743 36.2319C31.2504 35.8665 28.92 35.099 26.1558 32.621C24.0049 30.6924 22.5527 28.3115 22.1306 27.5832C21.7085 26.8554 22.0857 26.4617 22.4482 26.0988C22.7736 25.7731 23.172 25.2495 23.534 24.8246C23.8949 24.3997 24.0157 24.0968 24.2568 23.6114C24.4985 23.1255 24.3772 22.7011 24.1967 22.3372C24.0157 21.9733 22.6094 18.3757 21.9659 16.9369Z" fill="white"/>
</g>
<defs>
<filter id="filter0_d_86_18" x="-2.99011" y="1.01733" width="64.1433" height="64.7045" filterUnits="userSpaceOnUse" color-interpolation-filters="sRGB">
<feFlood flood-opacity="0" result="BackgroundImageFix"/>
<feColorMatrix in="SourceAlpha" type="matrix" values="0 0 0 0 0 0 0 0 0 0 0 0 0 0 0 0 0 0 127 0" result="hardAlpha"/>
<feOffset dy="4"/>
<feGaussianBlur stdDeviation="2"/>
<feComposite in2="hardAlpha" operator="out"/>
<feColorMatrix type="matrix" values="0 0 0 0 0 0 0 0 0 0 0 0 0 0 0 0 0 0 0.25 0"/>
<feBlend mode="normal" in2="BackgroundImageFix" result="effect1_dropShadow_86_18"/>
<feBlend mode="normal" in="SourceGraphic" in2="effect1_dropShadow_86_18" result="shape"/>
</filter>
<linearGradient id="paint0_linear_86_18" x1="2808.17" y1="5671.46" x2="2808.17" y2="1.01733" gradientUnits="userSpaceOnUse">
<stop stop-color="#1FAF38"/>
<stop offset="1" stop-color="#60D669"/>
</linearGradient>
<linearGradient id="paint1_linear_86_18" x1="2907.88" y1="5873.82" x2="2907.88" y2="0" gradientUnits="userSpaceOnUse">
<stop stop-color="#F9F9F9"/>
<stop offset="1" stop-color="white"/>
</linearGradient>
<clipPath id="clip0_86_18">
<rect width="58" height="59" fill="white"/>
</clipPath>
</defs>
</svg>
